G75*
%MOIN*%
%OFA0B0*%
%FSLAX24Y24*%
%IPPOS*%
%LPD*%
%AMOC8*
5,1,8,0,0,1.08239X$1,22.5*
%
%ADD10C,0.0130*%
%ADD11R,0.0800X0.0260*%
%ADD12C,0.0660*%
%ADD13C,0.1400*%
%ADD14R,0.0827X0.0827*%
%ADD15C,0.0660*%
%ADD16R,0.0512X0.0591*%
%ADD17C,0.0160*%
%ADD18C,0.0310*%
%ADD19C,0.0100*%
%ADD20C,0.0400*%
%ADD21C,0.2540*%
D10*
X000620Y004008D02*
X000985Y004008D01*
X001107Y004130D01*
X000985Y004252D01*
X000620Y004252D01*
X000620Y004495D02*
X001107Y004495D01*
X001107Y004373D01*
X000985Y004252D01*
X000985Y004800D02*
X000742Y004800D01*
X000620Y004922D01*
X000620Y005165D01*
X000742Y005287D01*
X000985Y005287D01*
X001107Y005165D01*
X001107Y004922D01*
X000985Y004800D01*
X001107Y005592D02*
X001107Y005957D01*
X000985Y006079D01*
X000742Y006079D01*
X000620Y005957D01*
X000620Y005592D01*
X000620Y006353D02*
X000620Y006475D01*
X000742Y006475D01*
X000742Y006353D01*
X000620Y006353D01*
X000620Y006759D02*
X000742Y006881D01*
X001229Y006881D01*
X001107Y007003D02*
X001107Y006759D01*
X000620Y007287D02*
X000620Y007531D01*
X000620Y007409D02*
X001107Y007409D01*
X001107Y007531D01*
X001351Y007409D02*
X001472Y007409D01*
X001351Y007835D02*
X000620Y007835D01*
X000620Y008201D01*
X000742Y008322D01*
X000985Y008322D01*
X001107Y008201D01*
X001107Y007835D01*
X000620Y008607D02*
X000620Y008850D01*
X000620Y008729D02*
X001107Y008729D01*
X001107Y008850D01*
X001351Y008729D02*
X001472Y008729D01*
X001351Y009155D02*
X000620Y009155D01*
X000620Y009521D01*
X000742Y009642D01*
X000985Y009642D01*
X001107Y009521D01*
X001107Y009155D01*
X001107Y010048D02*
X000620Y010048D01*
X000620Y009927D02*
X000620Y010170D01*
X000620Y010475D02*
X000620Y010840D01*
X000742Y010962D01*
X000985Y010962D01*
X001107Y010840D01*
X001107Y010475D01*
X001351Y010475D02*
X000620Y010475D01*
X001107Y010170D02*
X001107Y010048D01*
X001351Y010048D02*
X001472Y010048D01*
X001107Y011246D02*
X001107Y011490D01*
X001229Y011368D02*
X000742Y011368D01*
X000620Y011246D01*
D11*
X004970Y010180D03*
X004970Y009680D03*
X004970Y009180D03*
X004970Y008680D03*
X004970Y008180D03*
X004970Y007680D03*
X004970Y007180D03*
X007390Y007180D03*
X007390Y007680D03*
X007390Y008180D03*
X007390Y008680D03*
X007390Y009180D03*
X007390Y009680D03*
X007390Y010180D03*
D12*
X022475Y010180D02*
X023135Y010180D01*
X023135Y009180D02*
X022475Y009180D01*
X022475Y008180D02*
X023135Y008180D01*
D13*
X021180Y012930D03*
X019243Y012930D03*
X017305Y012930D03*
X015368Y012930D03*
X013430Y012930D03*
X011493Y012930D03*
D14*
X010950Y004763D03*
X012603Y004763D03*
X014257Y004763D03*
X015910Y004763D03*
X017564Y004763D03*
X019217Y004763D03*
X020871Y004763D03*
X020871Y002597D03*
X019217Y002597D03*
X017564Y002597D03*
X015910Y002597D03*
X014257Y002597D03*
X012603Y002597D03*
X010950Y002597D03*
X009296Y002597D03*
X007643Y002597D03*
X005989Y002597D03*
X005989Y004763D03*
X007643Y004763D03*
X009296Y004763D03*
D15*
X008930Y012930D03*
X007930Y012930D03*
X006430Y012930D03*
X005430Y012930D03*
D16*
X009371Y011033D03*
X010119Y011033D03*
X009554Y008680D03*
X008806Y008680D03*
X008806Y007680D03*
X009554Y007680D03*
D17*
X000660Y003713D02*
X000660Y000660D01*
X026555Y000660D01*
X026555Y014570D01*
X000660Y014570D01*
X000660Y011654D01*
X000683Y011663D01*
X000863Y011663D01*
X000940Y011740D01*
X001048Y011785D01*
X001166Y011785D01*
X001274Y011740D01*
X001357Y011657D01*
X001369Y011630D01*
X001396Y011618D01*
X001479Y011535D01*
X001524Y011427D01*
X001524Y011310D01*
X001479Y011201D01*
X001396Y011118D01*
X001369Y011107D01*
X001357Y011079D01*
X001321Y011043D01*
X001357Y011007D01*
X001402Y010899D01*
X001402Y010770D01*
X001409Y010770D01*
X001518Y010725D01*
X001601Y010642D01*
X001646Y010534D01*
X001646Y010416D01*
X001603Y010314D01*
X001639Y010299D01*
X001722Y010216D01*
X001767Y010107D01*
X001767Y009990D01*
X001722Y009881D01*
X001639Y009798D01*
X001531Y009753D01*
X001292Y009753D01*
X001291Y009754D01*
X001357Y009688D01*
X001402Y009579D01*
X001402Y009450D01*
X001409Y009450D01*
X001518Y009405D01*
X001601Y009322D01*
X001646Y009214D01*
X001646Y009097D01*
X001603Y008994D01*
X001639Y008979D01*
X001722Y008896D01*
X001767Y008787D01*
X001767Y008670D01*
X001722Y008562D01*
X001639Y008479D01*
X001531Y008434D01*
X001292Y008434D01*
X001291Y008434D01*
X001357Y008368D01*
X001402Y008259D01*
X001402Y008130D01*
X001409Y008130D01*
X001518Y008086D01*
X001601Y008003D01*
X001646Y007894D01*
X001646Y007777D01*
X001603Y007674D01*
X001639Y007659D01*
X001722Y007576D01*
X001767Y007468D01*
X001767Y007350D01*
X001722Y007242D01*
X001639Y007159D01*
X001531Y007114D01*
X001413Y007114D01*
X001479Y007048D01*
X001524Y006940D01*
X001524Y006822D01*
X001479Y006714D01*
X001396Y006631D01*
X001369Y006619D01*
X001357Y006592D01*
X001274Y006509D01*
X001166Y006464D01*
X001048Y006464D01*
X001037Y006469D01*
X001037Y006374D01*
X001044Y006374D01*
X001090Y006355D01*
X001152Y006329D01*
X001152Y006329D01*
X001154Y006327D01*
X001357Y006124D01*
X001402Y006016D01*
X001402Y005533D01*
X001357Y005425D01*
X001311Y005378D01*
X001357Y005332D01*
X001402Y005224D01*
X001402Y004863D01*
X001357Y004755D01*
X001311Y004708D01*
X001357Y004662D01*
X001402Y004554D01*
X001402Y004315D01*
X001376Y004252D01*
X001402Y004188D01*
X001402Y004071D01*
X001383Y004025D01*
X001357Y003963D01*
X001357Y003963D01*
X001356Y003961D01*
X001274Y003880D01*
X001274Y003880D01*
X001235Y003841D01*
X001152Y003758D01*
X001044Y003713D01*
X000660Y003713D01*
X000660Y003667D02*
X001396Y003667D01*
X001235Y003539D02*
X000961Y003137D01*
X000818Y002673D01*
X000818Y002187D01*
X000961Y001723D01*
X000961Y001723D01*
X001235Y001321D01*
X001615Y001018D01*
X002067Y000841D01*
X002552Y000805D01*
X003026Y000913D01*
X003446Y001156D01*
X003777Y001512D01*
X003988Y001950D01*
X004060Y002430D01*
X003988Y002910D01*
X003777Y003348D01*
X003777Y003348D01*
X003446Y003704D01*
X003026Y003947D01*
X003026Y003947D01*
X002552Y004055D01*
X002067Y004019D01*
X001615Y003842D01*
X001235Y003539D01*
X001235Y003539D01*
X001215Y003509D02*
X000660Y003509D01*
X000660Y003350D02*
X001106Y003350D01*
X000998Y003192D02*
X000660Y003192D01*
X000660Y003033D02*
X000929Y003033D01*
X000961Y003137D02*
X000961Y003137D01*
X000880Y002875D02*
X000660Y002875D01*
X000660Y002716D02*
X000831Y002716D01*
X000818Y002558D02*
X000660Y002558D01*
X000660Y002399D02*
X000818Y002399D01*
X000818Y002241D02*
X000660Y002241D01*
X000660Y002082D02*
X000851Y002082D01*
X000900Y001924D02*
X000660Y001924D01*
X000660Y001765D02*
X000948Y001765D01*
X001041Y001607D02*
X000660Y001607D01*
X000660Y001448D02*
X001149Y001448D01*
X001235Y001321D02*
X001235Y001321D01*
X001235Y001321D01*
X001275Y001290D02*
X000660Y001290D01*
X000660Y001131D02*
X001474Y001131D01*
X001615Y001018D02*
X001615Y001018D01*
X001732Y000973D02*
X000660Y000973D01*
X000660Y000814D02*
X002426Y000814D01*
X002593Y000814D02*
X026555Y000814D01*
X026555Y000973D02*
X003129Y000973D01*
X003026Y000913D02*
X003026Y000913D01*
X003404Y001131D02*
X012294Y001131D01*
X012239Y001186D02*
X012360Y001065D01*
X012518Y001000D01*
X025766Y001000D01*
X025924Y001065D01*
X026045Y001186D01*
X026110Y001344D01*
X026110Y007016D01*
X026045Y007174D01*
X025924Y007295D01*
X025766Y007360D01*
X021108Y007360D01*
X016110Y012358D01*
X016156Y012403D01*
X016297Y012745D01*
X016297Y013115D01*
X016156Y013457D01*
X015894Y013718D01*
X015552Y013860D01*
X015183Y013860D01*
X014841Y013718D01*
X014579Y013457D01*
X014438Y013115D01*
X014438Y012745D01*
X014579Y012403D01*
X014841Y012142D01*
X015183Y012000D01*
X015252Y012000D01*
X020686Y006565D01*
X020844Y006500D01*
X025250Y006500D01*
X025250Y001860D01*
X016340Y001860D01*
X016340Y001954D01*
X016419Y001954D01*
X016554Y002089D01*
X016554Y003106D01*
X016419Y003241D01*
X015402Y003241D01*
X015267Y003106D01*
X015267Y002089D01*
X015402Y001954D01*
X015480Y001954D01*
X015480Y001860D01*
X013033Y001860D01*
X013033Y001954D01*
X013112Y001954D01*
X013247Y002089D01*
X013247Y003106D01*
X013112Y003241D01*
X012095Y003241D01*
X011960Y003106D01*
X011960Y002089D01*
X012095Y001954D01*
X012173Y001954D01*
X012173Y001344D01*
X012239Y001186D01*
X012196Y001290D02*
X007685Y001290D01*
X007589Y001193D02*
X007801Y001405D01*
X007880Y001484D01*
X007923Y001587D01*
X007923Y001954D01*
X008151Y001954D01*
X008286Y002089D01*
X008286Y003106D01*
X008151Y003241D01*
X007134Y003241D01*
X006999Y003106D01*
X006999Y002089D01*
X007134Y001954D01*
X007363Y001954D01*
X007363Y001759D01*
X007314Y001710D01*
X005546Y001710D01*
X005250Y002006D01*
X005250Y006820D01*
X005465Y006820D01*
X005545Y006900D01*
X006815Y006900D01*
X006895Y006820D01*
X007885Y006820D01*
X007965Y006900D01*
X010361Y006900D01*
X010464Y006943D01*
X010542Y007021D01*
X010667Y007146D01*
X010710Y007249D01*
X010710Y008736D01*
X010710Y009111D01*
X010694Y009150D01*
X012939Y009150D01*
X015650Y006439D01*
X015650Y005406D01*
X015402Y005406D01*
X015267Y005271D01*
X015267Y004254D01*
X015402Y004119D01*
X016419Y004119D01*
X016554Y004254D01*
X016554Y005271D01*
X016419Y005406D01*
X016210Y005406D01*
X016210Y006611D01*
X016167Y006714D01*
X016089Y006792D01*
X013292Y009589D01*
X013214Y009667D01*
X013111Y009710D01*
X008249Y009710D01*
X008146Y009667D01*
X008068Y009589D01*
X008020Y009541D01*
X008020Y009905D01*
X007953Y009972D01*
X007958Y009981D01*
X007970Y010026D01*
X007970Y010180D01*
X007970Y010334D01*
X007958Y010379D01*
X007934Y010421D01*
X007901Y010454D01*
X007859Y010478D01*
X007814Y010490D01*
X007390Y010490D01*
X007390Y010180D01*
X007390Y010180D01*
X007970Y010180D01*
X007390Y010180D01*
X007390Y010180D01*
X007390Y010180D01*
X006810Y010180D01*
X006810Y010334D01*
X006822Y010379D01*
X006846Y010421D01*
X006879Y010454D01*
X006921Y010478D01*
X006966Y010490D01*
X007390Y010490D01*
X007390Y010180D01*
X006810Y010180D01*
X006810Y010026D01*
X006822Y009981D01*
X006827Y009972D01*
X006815Y009960D01*
X006749Y009960D01*
X006646Y009917D01*
X006521Y009792D01*
X006443Y009714D01*
X006400Y009611D01*
X006400Y007749D01*
X006443Y007646D01*
X006568Y007521D01*
X006629Y007460D01*
X005545Y007460D01*
X005533Y007472D01*
X005538Y007481D01*
X005550Y007526D01*
X005550Y007680D01*
X005550Y007834D01*
X005538Y007879D01*
X005514Y007921D01*
X005505Y007930D01*
X005514Y007939D01*
X005538Y007981D01*
X005550Y008026D01*
X005550Y008180D01*
X005550Y008334D01*
X005538Y008379D01*
X005514Y008421D01*
X005505Y008430D01*
X005514Y008439D01*
X005538Y008481D01*
X005550Y008526D01*
X005550Y008680D01*
X005550Y008834D01*
X005538Y008879D01*
X005514Y008921D01*
X005505Y008930D01*
X005514Y008939D01*
X005538Y008981D01*
X005550Y009026D01*
X005550Y009180D01*
X005550Y009334D01*
X005538Y009379D01*
X005533Y009388D01*
X005600Y009455D01*
X005600Y009905D01*
X005575Y009930D01*
X005600Y009955D01*
X005600Y010405D01*
X005465Y010540D01*
X004475Y010540D01*
X004340Y010405D01*
X004340Y009955D01*
X004365Y009930D01*
X004340Y009905D01*
X004340Y009455D01*
X004407Y009388D01*
X004402Y009379D01*
X004390Y009334D01*
X004390Y009180D01*
X004970Y009180D01*
X005550Y009180D01*
X004970Y009180D01*
X004970Y009180D01*
X004970Y009180D01*
X004970Y008870D01*
X004970Y008680D01*
X005550Y008680D01*
X004970Y008680D01*
X004970Y008680D01*
X004970Y008680D01*
X004970Y008680D01*
X004390Y008680D01*
X004390Y008834D01*
X004402Y008879D01*
X004426Y008921D01*
X004435Y008930D01*
X004426Y008939D01*
X004402Y008981D01*
X004390Y009026D01*
X004390Y009180D01*
X004970Y009180D01*
X004970Y009180D01*
X004970Y008680D01*
X004970Y008370D01*
X004970Y008180D01*
X005550Y008180D01*
X004970Y008180D01*
X004970Y008180D01*
X004970Y008180D01*
X004970Y008180D01*
X004390Y008180D01*
X004390Y008334D01*
X004402Y008379D01*
X004426Y008421D01*
X004435Y008430D01*
X004426Y008439D01*
X004402Y008481D01*
X004390Y008526D01*
X004390Y008680D01*
X004970Y008680D01*
X004970Y008680D01*
X004970Y008180D01*
X004970Y007990D01*
X004970Y007680D01*
X005550Y007680D01*
X004970Y007680D01*
X004970Y007680D01*
X004970Y007680D01*
X004970Y007680D01*
X004390Y007680D01*
X004390Y007834D01*
X004402Y007879D01*
X004426Y007921D01*
X004435Y007930D01*
X004426Y007939D01*
X004402Y007981D01*
X004390Y008026D01*
X004390Y008180D01*
X004970Y008180D01*
X004970Y008180D01*
X004970Y007680D01*
X004390Y007680D01*
X004390Y007526D01*
X004402Y007481D01*
X004407Y007472D01*
X004340Y007405D01*
X004340Y006955D01*
X004475Y006820D01*
X004690Y006820D01*
X004690Y005499D01*
X004552Y005579D01*
X004280Y005652D01*
X003998Y005652D01*
X003725Y005579D01*
X003481Y005438D01*
X003282Y005239D01*
X003141Y004995D01*
X003068Y004723D01*
X003068Y004441D01*
X003141Y004168D01*
X003282Y003924D01*
X003481Y003725D01*
X003725Y003584D01*
X003998Y003511D01*
X004280Y003511D01*
X004552Y003584D01*
X004690Y003664D01*
X004690Y001834D01*
X004733Y001731D01*
X005193Y001271D01*
X005271Y001193D01*
X005374Y001150D01*
X007486Y001150D01*
X007589Y001193D01*
X007844Y001448D02*
X012173Y001448D01*
X012173Y001607D02*
X007923Y001607D01*
X007923Y001765D02*
X012173Y001765D01*
X012173Y001924D02*
X007923Y001924D01*
X008279Y002082D02*
X008659Y002082D01*
X008653Y002089D02*
X008787Y001954D01*
X009805Y001954D01*
X009940Y002089D01*
X009940Y003106D01*
X009805Y003241D01*
X008787Y003241D01*
X008653Y003106D01*
X008653Y002089D01*
X008653Y002241D02*
X008286Y002241D01*
X008286Y002399D02*
X008653Y002399D01*
X008653Y002558D02*
X008286Y002558D01*
X008286Y002716D02*
X008653Y002716D01*
X008653Y002875D02*
X008286Y002875D01*
X008286Y003033D02*
X008653Y003033D01*
X008738Y003192D02*
X008200Y003192D01*
X007085Y003192D02*
X006547Y003192D01*
X006498Y003241D02*
X006632Y003106D01*
X006632Y002089D01*
X006498Y001954D01*
X005480Y001954D01*
X005346Y002089D01*
X005346Y003106D01*
X005480Y003241D01*
X006498Y003241D01*
X006632Y003033D02*
X006999Y003033D01*
X006999Y002875D02*
X006632Y002875D01*
X006632Y002716D02*
X006999Y002716D01*
X006999Y002558D02*
X006632Y002558D01*
X006632Y002399D02*
X006999Y002399D01*
X006999Y002241D02*
X006632Y002241D01*
X006626Y002082D02*
X007006Y002082D01*
X007363Y001924D02*
X005332Y001924D01*
X005352Y002082D02*
X005250Y002082D01*
X005250Y002241D02*
X005346Y002241D01*
X005346Y002399D02*
X005250Y002399D01*
X005250Y002558D02*
X005346Y002558D01*
X005346Y002716D02*
X005250Y002716D01*
X005250Y002875D02*
X005346Y002875D01*
X005346Y003033D02*
X005250Y003033D01*
X005250Y003192D02*
X005431Y003192D01*
X005250Y003350D02*
X020441Y003350D01*
X020441Y003241D02*
X020362Y003241D01*
X020228Y003106D01*
X020228Y003027D01*
X019861Y003027D01*
X019861Y003106D01*
X019726Y003241D01*
X018709Y003241D01*
X018574Y003106D01*
X018574Y002089D01*
X018709Y001954D01*
X019726Y001954D01*
X019861Y002089D01*
X019861Y002167D01*
X020228Y002167D01*
X020228Y002089D01*
X020362Y001954D01*
X021380Y001954D01*
X021514Y002089D01*
X021514Y003106D01*
X021380Y003241D01*
X021301Y003241D01*
X021301Y004119D01*
X021380Y004119D01*
X021514Y004254D01*
X021514Y005271D01*
X021380Y005406D01*
X021128Y005406D01*
X021115Y005420D01*
X021107Y005423D01*
X020229Y006240D01*
X014142Y012326D01*
X014218Y012403D01*
X014360Y012745D01*
X014360Y013115D01*
X014218Y013457D01*
X013957Y013718D01*
X013615Y013860D01*
X013245Y013860D01*
X012903Y013718D01*
X012642Y013457D01*
X012500Y013115D01*
X012500Y012745D01*
X012642Y012403D01*
X012903Y012142D01*
X013245Y012000D01*
X013252Y012000D01*
X019571Y005681D01*
X019575Y005673D01*
X019631Y005620D01*
X019686Y005565D01*
X019694Y005562D01*
X020228Y005066D01*
X020228Y004254D01*
X020362Y004119D01*
X020441Y004119D01*
X020441Y003241D01*
X020313Y003192D02*
X019775Y003192D01*
X019861Y003033D02*
X020228Y003033D01*
X021301Y003350D02*
X025250Y003350D01*
X025250Y003192D02*
X021429Y003192D01*
X021514Y003033D02*
X025250Y003033D01*
X025250Y002875D02*
X021514Y002875D01*
X021514Y002716D02*
X025250Y002716D01*
X025250Y002558D02*
X021514Y002558D01*
X021514Y002399D02*
X025250Y002399D01*
X025250Y002241D02*
X021514Y002241D01*
X021508Y002082D02*
X025250Y002082D01*
X025250Y001924D02*
X016340Y001924D01*
X016547Y002082D02*
X017001Y002082D01*
X017006Y002073D02*
X017040Y002040D01*
X017081Y002016D01*
X017127Y002004D01*
X017506Y002004D01*
X017506Y002540D01*
X016970Y002540D01*
X016970Y002160D01*
X016983Y002114D01*
X017006Y002073D01*
X016970Y002241D02*
X016554Y002241D01*
X016554Y002399D02*
X016970Y002399D01*
X016554Y002558D02*
X017506Y002558D01*
X017506Y002540D02*
X017506Y002655D01*
X016970Y002655D01*
X016970Y003034D01*
X016983Y003080D01*
X017006Y003121D01*
X017040Y003155D01*
X017081Y003178D01*
X017127Y003191D01*
X017506Y003191D01*
X017506Y002655D01*
X017622Y002655D01*
X018157Y002655D01*
X018157Y003034D01*
X018145Y003080D01*
X018121Y003121D01*
X018088Y003155D01*
X018047Y003178D01*
X018001Y003191D01*
X017622Y003191D01*
X017622Y002655D01*
X017622Y002540D01*
X018157Y002540D01*
X018157Y002160D01*
X018145Y002114D01*
X018121Y002073D01*
X018088Y002040D01*
X018047Y002016D01*
X018001Y002004D01*
X017622Y002004D01*
X017622Y002540D01*
X017506Y002540D01*
X017622Y002558D02*
X018574Y002558D01*
X018574Y002716D02*
X018157Y002716D01*
X018157Y002875D02*
X018574Y002875D01*
X018574Y003033D02*
X018157Y003033D01*
X018660Y003192D02*
X016468Y003192D01*
X016554Y003033D02*
X016970Y003033D01*
X016970Y002875D02*
X016554Y002875D01*
X016554Y002716D02*
X016970Y002716D01*
X017506Y002716D02*
X017622Y002716D01*
X017622Y002875D02*
X017506Y002875D01*
X017506Y003033D02*
X017622Y003033D01*
X017622Y002399D02*
X017506Y002399D01*
X017506Y002241D02*
X017622Y002241D01*
X017622Y002082D02*
X017506Y002082D01*
X018126Y002082D02*
X018581Y002082D01*
X018574Y002241D02*
X018157Y002241D01*
X018157Y002399D02*
X018574Y002399D01*
X019854Y002082D02*
X020234Y002082D01*
X020441Y003509D02*
X005250Y003509D01*
X005250Y003667D02*
X020441Y003667D01*
X020441Y003826D02*
X005250Y003826D01*
X005250Y003984D02*
X020441Y003984D01*
X020339Y004143D02*
X019749Y004143D01*
X019726Y004119D02*
X019861Y004254D01*
X019861Y005271D01*
X019726Y005406D01*
X018709Y005406D01*
X018574Y005271D01*
X018574Y004254D01*
X018709Y004119D01*
X019726Y004119D01*
X019861Y004301D02*
X020228Y004301D01*
X020228Y004460D02*
X019861Y004460D01*
X019861Y004618D02*
X020228Y004618D01*
X020228Y004777D02*
X019861Y004777D01*
X019861Y004935D02*
X020228Y004935D01*
X020198Y005094D02*
X019861Y005094D01*
X019861Y005252D02*
X020028Y005252D01*
X019857Y005411D02*
X016210Y005411D01*
X016210Y005569D02*
X019683Y005569D01*
X019524Y005728D02*
X016210Y005728D01*
X016210Y005886D02*
X019366Y005886D01*
X019207Y006045D02*
X016210Y006045D01*
X016210Y006203D02*
X019049Y006203D01*
X018890Y006362D02*
X016210Y006362D01*
X016210Y006520D02*
X018732Y006520D01*
X018573Y006679D02*
X016182Y006679D01*
X016044Y006837D02*
X018415Y006837D01*
X018256Y006996D02*
X015885Y006996D01*
X015727Y007154D02*
X018098Y007154D01*
X017939Y007313D02*
X015568Y007313D01*
X015410Y007471D02*
X017781Y007471D01*
X017622Y007630D02*
X015251Y007630D01*
X015093Y007788D02*
X017464Y007788D01*
X017305Y007947D02*
X014934Y007947D01*
X014776Y008105D02*
X017147Y008105D01*
X016988Y008264D02*
X014617Y008264D01*
X014459Y008422D02*
X016830Y008422D01*
X016671Y008581D02*
X014300Y008581D01*
X014142Y008739D02*
X016513Y008739D01*
X016354Y008898D02*
X013983Y008898D01*
X013825Y009056D02*
X016196Y009056D01*
X016037Y009215D02*
X013666Y009215D01*
X013508Y009373D02*
X015879Y009373D01*
X015720Y009532D02*
X013349Y009532D01*
X013159Y009690D02*
X015562Y009690D01*
X015403Y009849D02*
X008020Y009849D01*
X008020Y009690D02*
X008201Y009690D01*
X007965Y010007D02*
X015245Y010007D01*
X015086Y010166D02*
X007970Y010166D01*
X007970Y010324D02*
X014928Y010324D01*
X014769Y010483D02*
X007842Y010483D01*
X008044Y010795D02*
X008147Y010753D01*
X008885Y010753D01*
X008885Y010642D01*
X009020Y010507D01*
X009722Y010507D01*
X009745Y010530D01*
X009768Y010507D01*
X010470Y010507D01*
X010605Y010642D01*
X010605Y010721D01*
X010728Y010670D01*
X010882Y010670D01*
X011023Y010729D01*
X011131Y010837D01*
X011190Y010978D01*
X011190Y011132D01*
X011131Y011273D01*
X011023Y011381D01*
X010882Y011440D01*
X010728Y011440D01*
X010605Y011389D01*
X010605Y011423D01*
X010470Y011558D01*
X009768Y011558D01*
X009745Y011535D01*
X009722Y011558D01*
X009020Y011558D01*
X008885Y011423D01*
X008885Y011312D01*
X008318Y011312D01*
X008210Y011421D01*
X008210Y012440D01*
X008247Y012455D01*
X008405Y012613D01*
X008456Y012737D01*
X008457Y012734D01*
X008494Y012663D01*
X008541Y012598D01*
X008598Y012541D01*
X008663Y012494D01*
X008734Y012457D01*
X008811Y012433D01*
X008890Y012420D01*
X008912Y012420D01*
X008912Y012912D01*
X008948Y012912D01*
X008948Y012948D01*
X008912Y012948D01*
X008912Y013440D01*
X008890Y013440D01*
X008811Y013427D01*
X008734Y013403D01*
X008663Y013366D01*
X008598Y013319D01*
X008541Y013262D01*
X008494Y013197D01*
X008457Y013126D01*
X008456Y013123D01*
X008405Y013247D01*
X008247Y013405D01*
X008041Y013490D01*
X007819Y013490D01*
X007613Y013405D01*
X007455Y013247D01*
X007370Y013041D01*
X007370Y012819D01*
X007455Y012613D01*
X007613Y012455D01*
X007650Y012440D01*
X007650Y011249D01*
X007693Y011146D01*
X007771Y011068D01*
X008044Y010795D01*
X008040Y010800D02*
X001402Y010800D01*
X001378Y010958D02*
X007881Y010958D01*
X007723Y011117D02*
X001392Y011117D01*
X001510Y011275D02*
X007650Y011275D01*
X007650Y011434D02*
X003062Y011434D01*
X003026Y011413D02*
X003446Y011656D01*
X003777Y012012D01*
X003988Y012450D01*
X004060Y012930D01*
X003988Y013410D01*
X003777Y013848D01*
X003777Y013848D01*
X003446Y014204D01*
X003026Y014447D01*
X003026Y014447D01*
X002552Y014555D01*
X002067Y014519D01*
X001615Y014342D01*
X001235Y014039D01*
X001235Y014039D01*
X001235Y014039D01*
X000961Y013637D01*
X000818Y013173D01*
X000818Y012687D01*
X000961Y012223D01*
X000961Y012223D01*
X001235Y011821D01*
X001615Y011518D01*
X002067Y011341D01*
X002067Y011341D01*
X002552Y011305D01*
X003026Y011413D01*
X003026Y011413D01*
X002552Y011305D02*
X002552Y011305D01*
X003336Y011592D02*
X007650Y011592D01*
X007650Y011751D02*
X003534Y011751D01*
X003446Y011656D02*
X003446Y011656D01*
X003446Y011656D01*
X003681Y011909D02*
X007650Y011909D01*
X007650Y012068D02*
X003804Y012068D01*
X003777Y012012D02*
X003777Y012012D01*
X003880Y012226D02*
X007650Y012226D01*
X007650Y012385D02*
X005576Y012385D01*
X005541Y012370D02*
X005747Y012455D01*
X005905Y012613D01*
X005956Y012737D01*
X005957Y012734D01*
X005994Y012663D01*
X006041Y012598D01*
X006098Y012541D01*
X006163Y012494D01*
X006234Y012457D01*
X006311Y012433D01*
X006390Y012420D01*
X006412Y012420D01*
X006412Y012912D01*
X006448Y012912D01*
X006448Y012948D01*
X006412Y012948D01*
X006412Y013440D01*
X006390Y013440D01*
X006311Y013427D01*
X006234Y013403D01*
X006163Y013366D01*
X006098Y013319D01*
X006041Y013262D01*
X005994Y013197D01*
X005957Y013126D01*
X005956Y013123D01*
X005905Y013247D01*
X005747Y013405D01*
X005541Y013490D01*
X005319Y013490D01*
X005113Y013405D01*
X004955Y013247D01*
X004870Y013041D01*
X004870Y012819D01*
X004955Y012613D01*
X005113Y012455D01*
X005319Y012370D01*
X005541Y012370D01*
X005284Y012385D02*
X003956Y012385D01*
X003988Y012450D02*
X003988Y012450D01*
X004002Y012543D02*
X005025Y012543D01*
X004918Y012702D02*
X004026Y012702D01*
X004049Y012860D02*
X004870Y012860D01*
X004870Y013019D02*
X004047Y013019D01*
X004023Y013177D02*
X004926Y013177D01*
X005044Y013336D02*
X003999Y013336D01*
X003988Y013410D02*
X003988Y013410D01*
X003947Y013494D02*
X010816Y013494D01*
X010829Y013511D02*
X010759Y013420D01*
X010702Y013320D01*
X010657Y013213D01*
X010628Y013102D01*
X010615Y013010D01*
X011412Y013010D01*
X011412Y012850D01*
X010615Y012850D01*
X010628Y012758D01*
X010657Y012647D01*
X010702Y012540D01*
X010759Y012440D01*
X010829Y012349D01*
X010911Y012267D01*
X011003Y012197D01*
X011102Y012139D01*
X011209Y012095D01*
X011320Y012065D01*
X011413Y012053D01*
X011413Y012850D01*
X011572Y012850D01*
X011572Y012053D01*
X011665Y012065D01*
X011776Y012095D01*
X011883Y012139D01*
X011982Y012197D01*
X012074Y012267D01*
X012156Y012349D01*
X012226Y012440D01*
X012283Y012540D01*
X012328Y012647D01*
X012357Y012758D01*
X012370Y012850D01*
X011573Y012850D01*
X011573Y013010D01*
X012370Y013010D01*
X012357Y013102D01*
X012328Y013213D01*
X012283Y013320D01*
X012226Y013420D01*
X012156Y013511D01*
X012074Y013593D01*
X011982Y013663D01*
X011883Y013721D01*
X011776Y013765D01*
X011665Y013795D01*
X011572Y013807D01*
X011572Y013010D01*
X011413Y013010D01*
X011413Y013807D01*
X011320Y013795D01*
X011209Y013765D01*
X011102Y013721D01*
X011003Y013663D01*
X010911Y013593D01*
X010829Y013511D01*
X010710Y013336D02*
X009240Y013336D01*
X009262Y013319D02*
X009197Y013366D01*
X009126Y013403D01*
X009049Y013427D01*
X008970Y013440D01*
X008948Y013440D01*
X008948Y012948D01*
X009440Y012948D01*
X009440Y012970D01*
X009427Y013049D01*
X009403Y013126D01*
X009366Y013197D01*
X009319Y013262D01*
X009262Y013319D01*
X009377Y013177D02*
X010648Y013177D01*
X010617Y013019D02*
X009432Y013019D01*
X009440Y012912D02*
X008948Y012912D01*
X008948Y012420D01*
X008970Y012420D01*
X009049Y012433D01*
X009126Y012457D01*
X009197Y012494D01*
X009262Y012541D01*
X009319Y012598D01*
X009366Y012663D01*
X009403Y012734D01*
X009427Y012811D01*
X009440Y012890D01*
X009440Y012912D01*
X009435Y012860D02*
X011412Y012860D01*
X011413Y012702D02*
X011572Y012702D01*
X011573Y012860D02*
X012500Y012860D01*
X012500Y013019D02*
X012368Y013019D01*
X012337Y013177D02*
X012526Y013177D01*
X012591Y013336D02*
X012275Y013336D01*
X012169Y013494D02*
X012679Y013494D01*
X012837Y013653D02*
X011996Y013653D01*
X011572Y013653D02*
X011413Y013653D01*
X011413Y013494D02*
X011572Y013494D01*
X011572Y013336D02*
X011413Y013336D01*
X011413Y013177D02*
X011572Y013177D01*
X011572Y013019D02*
X011413Y013019D01*
X010643Y012702D02*
X009386Y012702D01*
X009264Y012543D02*
X010700Y012543D01*
X010802Y012385D02*
X008210Y012385D01*
X008210Y012226D02*
X010964Y012226D01*
X011311Y012068D02*
X008210Y012068D01*
X008210Y011909D02*
X013343Y011909D01*
X013501Y011751D02*
X008210Y011751D01*
X008210Y011592D02*
X013660Y011592D01*
X013818Y011434D02*
X010897Y011434D01*
X010713Y011434D02*
X010594Y011434D01*
X011129Y011275D02*
X013977Y011275D01*
X014135Y011117D02*
X011190Y011117D01*
X011182Y010958D02*
X014294Y010958D01*
X014452Y010800D02*
X011094Y010800D01*
X010604Y010641D02*
X014611Y010641D01*
X015352Y011117D02*
X016135Y011117D01*
X016294Y010958D02*
X015510Y010958D01*
X015669Y010800D02*
X016452Y010800D01*
X016611Y010641D02*
X015827Y010641D01*
X015986Y010483D02*
X016769Y010483D01*
X016928Y010324D02*
X016144Y010324D01*
X016303Y010166D02*
X017086Y010166D01*
X017245Y010007D02*
X016461Y010007D01*
X016620Y009849D02*
X017403Y009849D01*
X017562Y009690D02*
X016778Y009690D01*
X016937Y009532D02*
X017720Y009532D01*
X017879Y009373D02*
X017095Y009373D01*
X017254Y009215D02*
X018037Y009215D01*
X018196Y009056D02*
X017412Y009056D01*
X017571Y008898D02*
X018354Y008898D01*
X018513Y008739D02*
X017729Y008739D01*
X017888Y008581D02*
X018671Y008581D01*
X018830Y008422D02*
X018046Y008422D01*
X018205Y008264D02*
X018988Y008264D01*
X019147Y008105D02*
X018363Y008105D01*
X018522Y007947D02*
X019305Y007947D01*
X019464Y007788D02*
X018680Y007788D01*
X018839Y007630D02*
X019622Y007630D01*
X019781Y007471D02*
X018997Y007471D01*
X019156Y007313D02*
X019939Y007313D01*
X020098Y007154D02*
X019314Y007154D01*
X019473Y006996D02*
X020256Y006996D01*
X020415Y006837D02*
X019631Y006837D01*
X019790Y006679D02*
X020573Y006679D01*
X020796Y006520D02*
X019948Y006520D01*
X020107Y006362D02*
X025250Y006362D01*
X025250Y006203D02*
X020268Y006203D01*
X020438Y006045D02*
X025250Y006045D01*
X025250Y005886D02*
X020609Y005886D01*
X020779Y005728D02*
X025250Y005728D01*
X025250Y005569D02*
X023152Y005569D01*
X023135Y005579D02*
X022862Y005652D01*
X022580Y005652D01*
X022308Y005579D01*
X022064Y005438D01*
X021865Y005239D01*
X021724Y004995D01*
X021651Y004723D01*
X021651Y004441D01*
X021724Y004168D01*
X021865Y003924D01*
X022064Y003725D01*
X022308Y003584D01*
X022580Y003511D01*
X022862Y003511D01*
X023135Y003584D01*
X023379Y003725D01*
X023578Y003924D01*
X023719Y004168D01*
X023792Y004441D01*
X023792Y004723D01*
X023719Y004995D01*
X023578Y005239D01*
X023379Y005438D01*
X023135Y005579D01*
X023406Y005411D02*
X025250Y005411D01*
X025250Y005252D02*
X023565Y005252D01*
X023662Y005094D02*
X025250Y005094D01*
X025250Y004935D02*
X023735Y004935D01*
X023777Y004777D02*
X025250Y004777D01*
X025250Y004618D02*
X023792Y004618D01*
X023792Y004460D02*
X025250Y004460D01*
X025250Y004301D02*
X023754Y004301D01*
X023704Y004143D02*
X025250Y004143D01*
X025250Y003984D02*
X023612Y003984D01*
X023479Y003826D02*
X025250Y003826D01*
X025250Y003667D02*
X023278Y003667D01*
X022164Y003667D02*
X021301Y003667D01*
X021301Y003509D02*
X025250Y003509D01*
X026110Y003509D02*
X026555Y003509D01*
X026555Y003667D02*
X026110Y003667D01*
X026110Y003826D02*
X026555Y003826D01*
X026555Y003984D02*
X026110Y003984D01*
X026110Y004143D02*
X026555Y004143D01*
X026555Y004301D02*
X026110Y004301D01*
X026110Y004460D02*
X026555Y004460D01*
X026555Y004618D02*
X026110Y004618D01*
X026110Y004777D02*
X026555Y004777D01*
X026555Y004935D02*
X026110Y004935D01*
X026110Y005094D02*
X026555Y005094D01*
X026555Y005252D02*
X026110Y005252D01*
X026110Y005411D02*
X026555Y005411D01*
X026555Y005569D02*
X026110Y005569D01*
X026110Y005728D02*
X026555Y005728D01*
X026555Y005886D02*
X026110Y005886D01*
X026110Y006045D02*
X026555Y006045D01*
X026555Y006203D02*
X026110Y006203D01*
X026110Y006362D02*
X026555Y006362D01*
X026555Y006520D02*
X026110Y006520D01*
X026110Y006679D02*
X026555Y006679D01*
X026555Y006837D02*
X026110Y006837D01*
X026110Y006996D02*
X026555Y006996D01*
X026555Y007154D02*
X026053Y007154D01*
X025880Y007313D02*
X026555Y007313D01*
X026555Y007471D02*
X020997Y007471D01*
X020839Y007630D02*
X022341Y007630D01*
X022364Y007620D02*
X023246Y007620D01*
X023452Y007705D01*
X023610Y007863D01*
X023695Y008069D01*
X023695Y008291D01*
X023610Y008497D01*
X023452Y008655D01*
X023391Y008680D01*
X023452Y008705D01*
X023610Y008863D01*
X023695Y009069D01*
X023695Y009291D01*
X023610Y009497D01*
X023452Y009655D01*
X023328Y009706D01*
X023331Y009707D01*
X023402Y009744D01*
X023467Y009791D01*
X023524Y009848D01*
X023571Y009913D01*
X023608Y009984D01*
X023632Y010061D01*
X023645Y010140D01*
X023645Y010150D01*
X022835Y010150D01*
X022835Y010210D01*
X022775Y010210D01*
X022775Y010690D01*
X022435Y010690D01*
X022356Y010677D01*
X022279Y010653D01*
X022208Y010616D01*
X022143Y010569D01*
X022086Y010512D01*
X022039Y010447D01*
X022002Y010376D01*
X021978Y010299D01*
X021965Y010220D01*
X021965Y010210D01*
X022775Y010210D01*
X022775Y010150D01*
X021965Y010150D01*
X021965Y010140D01*
X021978Y010061D01*
X022002Y009984D01*
X022039Y009913D01*
X022086Y009848D01*
X022143Y009791D01*
X022208Y009744D01*
X022279Y009707D01*
X022282Y009706D01*
X022179Y009664D01*
X021610Y010233D01*
X021610Y012101D01*
X021707Y012142D01*
X021968Y012403D01*
X022110Y012745D01*
X022110Y013115D01*
X021968Y013457D01*
X021707Y013718D01*
X021365Y013860D01*
X020995Y013860D01*
X020653Y013718D01*
X020392Y013457D01*
X020250Y013115D01*
X020250Y012745D01*
X020392Y012403D01*
X020653Y012142D01*
X020750Y012101D01*
X020750Y009969D01*
X020815Y009811D01*
X020936Y009690D01*
X021811Y008815D01*
X021969Y008750D01*
X022113Y008750D01*
X022158Y008705D01*
X022219Y008680D01*
X022158Y008655D01*
X022113Y008610D01*
X021608Y008610D01*
X019672Y010546D01*
X019672Y012101D01*
X019769Y012142D01*
X020031Y012403D01*
X020172Y012745D01*
X020172Y013115D01*
X020031Y013457D01*
X019769Y013718D01*
X019427Y013860D01*
X019058Y013860D01*
X018716Y013718D01*
X018454Y013457D01*
X018313Y013115D01*
X018313Y012745D01*
X018454Y012403D01*
X018716Y012142D01*
X018813Y012101D01*
X018813Y010282D01*
X018878Y010124D01*
X018999Y010003D01*
X021186Y007815D01*
X021344Y007750D01*
X022113Y007750D01*
X022158Y007705D01*
X022364Y007620D01*
X023269Y007630D02*
X026555Y007630D01*
X026555Y007788D02*
X023535Y007788D01*
X023644Y007947D02*
X026555Y007947D01*
X026555Y008105D02*
X023695Y008105D01*
X023695Y008264D02*
X026555Y008264D01*
X026555Y008422D02*
X023641Y008422D01*
X023526Y008581D02*
X026555Y008581D01*
X026555Y008739D02*
X023486Y008739D01*
X023624Y008898D02*
X026555Y008898D01*
X026555Y009056D02*
X023690Y009056D01*
X023695Y009215D02*
X026555Y009215D01*
X026555Y009373D02*
X023661Y009373D01*
X023575Y009532D02*
X026555Y009532D01*
X026555Y009690D02*
X023367Y009690D01*
X023525Y009849D02*
X026555Y009849D01*
X026555Y010007D02*
X023615Y010007D01*
X023645Y010210D02*
X022835Y010210D01*
X022835Y010690D01*
X023175Y010690D01*
X023254Y010677D01*
X023331Y010653D01*
X023402Y010616D01*
X023467Y010569D01*
X023524Y010512D01*
X023571Y010447D01*
X023608Y010376D01*
X023632Y010299D01*
X023645Y010220D01*
X023645Y010210D01*
X023624Y010324D02*
X026555Y010324D01*
X026555Y010166D02*
X022835Y010166D01*
X022775Y010166D02*
X021678Y010166D01*
X021610Y010324D02*
X021986Y010324D01*
X022064Y010483D02*
X021610Y010483D01*
X021610Y010641D02*
X022256Y010641D01*
X022775Y010641D02*
X022835Y010641D01*
X022835Y010483D02*
X022775Y010483D01*
X022775Y010324D02*
X022835Y010324D01*
X023354Y010641D02*
X026555Y010641D01*
X026555Y010483D02*
X023546Y010483D01*
X022243Y009690D02*
X022153Y009690D01*
X022085Y009849D02*
X021995Y009849D01*
X021995Y010007D02*
X021836Y010007D01*
X021095Y009532D02*
X020687Y009532D01*
X020528Y009690D02*
X020937Y009690D01*
X020800Y009849D02*
X020370Y009849D01*
X020211Y010007D02*
X020750Y010007D01*
X020750Y010166D02*
X020053Y010166D01*
X019894Y010324D02*
X020750Y010324D01*
X020750Y010483D02*
X019736Y010483D01*
X019672Y010641D02*
X020750Y010641D01*
X020750Y010800D02*
X019672Y010800D01*
X019672Y010958D02*
X020750Y010958D01*
X020750Y011117D02*
X019672Y011117D01*
X019672Y011275D02*
X020750Y011275D01*
X020750Y011434D02*
X019672Y011434D01*
X019672Y011592D02*
X020750Y011592D01*
X020750Y011751D02*
X019672Y011751D01*
X019672Y011909D02*
X020750Y011909D01*
X020750Y012068D02*
X019672Y012068D01*
X019854Y012226D02*
X020569Y012226D01*
X020410Y012385D02*
X020012Y012385D01*
X020089Y012543D02*
X020334Y012543D01*
X020268Y012702D02*
X020154Y012702D01*
X020172Y012860D02*
X020250Y012860D01*
X020250Y013019D02*
X020172Y013019D01*
X020147Y013177D02*
X020276Y013177D01*
X020341Y013336D02*
X020081Y013336D01*
X019994Y013494D02*
X020429Y013494D01*
X020587Y013653D02*
X019835Y013653D01*
X019546Y013811D02*
X020877Y013811D01*
X021483Y013811D02*
X026555Y013811D01*
X026555Y013653D02*
X021773Y013653D01*
X021931Y013494D02*
X026555Y013494D01*
X026555Y013336D02*
X022019Y013336D01*
X022084Y013177D02*
X026555Y013177D01*
X026555Y013019D02*
X022110Y013019D01*
X022110Y012860D02*
X026555Y012860D01*
X026555Y012702D02*
X022092Y012702D01*
X022026Y012543D02*
X026555Y012543D01*
X026555Y012385D02*
X021950Y012385D01*
X021791Y012226D02*
X026555Y012226D01*
X026555Y012068D02*
X021610Y012068D01*
X021610Y011909D02*
X026555Y011909D01*
X026555Y011751D02*
X021610Y011751D01*
X021610Y011592D02*
X026555Y011592D01*
X026555Y011434D02*
X021610Y011434D01*
X021610Y011275D02*
X026555Y011275D01*
X026930Y011275D02*
X030442Y011275D01*
X030442Y011434D02*
X026930Y011434D01*
X026930Y011592D02*
X028086Y011592D01*
X028223Y011522D02*
X027810Y011733D01*
X027810Y011733D01*
X027483Y012060D01*
X027483Y012060D01*
X027272Y012473D01*
X027272Y012473D01*
X027200Y012930D01*
X027200Y012930D01*
X027272Y013387D01*
X027272Y013387D01*
X027483Y013800D01*
X027483Y013800D01*
X027810Y014127D01*
X027810Y014127D01*
X028223Y014338D01*
X028223Y014338D01*
X028680Y014410D01*
X028680Y014410D01*
X029137Y014338D01*
X029137Y014338D01*
X029550Y014127D01*
X029550Y014127D01*
X029877Y013800D01*
X029877Y013800D01*
X030088Y013387D01*
X030160Y012930D01*
X030160Y012930D01*
X030088Y012473D01*
X029877Y012060D01*
X029550Y011733D01*
X029550Y011733D01*
X029137Y011522D01*
X029137Y011522D01*
X028680Y011450D01*
X028680Y011450D01*
X028223Y011522D01*
X028223Y011522D01*
X027792Y011751D02*
X026930Y011751D01*
X026930Y011909D02*
X027634Y011909D01*
X027479Y012068D02*
X026930Y012068D01*
X026930Y012226D02*
X027398Y012226D01*
X027317Y012385D02*
X026930Y012385D01*
X026930Y012543D02*
X027261Y012543D01*
X027236Y012702D02*
X026930Y012702D01*
X026930Y012860D02*
X027211Y012860D01*
X027214Y013019D02*
X026930Y013019D01*
X026930Y013177D02*
X027239Y013177D01*
X027264Y013336D02*
X026930Y013336D01*
X026930Y013494D02*
X027327Y013494D01*
X027408Y013653D02*
X026930Y013653D01*
X026930Y013811D02*
X027494Y013811D01*
X027652Y013970D02*
X026930Y013970D01*
X026930Y014128D02*
X027811Y014128D01*
X028122Y014287D02*
X026930Y014287D01*
X026930Y014445D02*
X030442Y014445D01*
X030442Y014570D02*
X030442Y000660D01*
X026930Y000660D01*
X026930Y014570D01*
X030442Y014570D01*
X030442Y014287D02*
X029238Y014287D01*
X029549Y014128D02*
X030442Y014128D01*
X030442Y013970D02*
X029708Y013970D01*
X029866Y013811D02*
X030442Y013811D01*
X030442Y013653D02*
X029952Y013653D01*
X030033Y013494D02*
X030442Y013494D01*
X030442Y013336D02*
X030096Y013336D01*
X030088Y013387D02*
X030088Y013387D01*
X030121Y013177D02*
X030442Y013177D01*
X030442Y013019D02*
X030146Y013019D01*
X030149Y012860D02*
X030442Y012860D01*
X030442Y012702D02*
X030124Y012702D01*
X030099Y012543D02*
X030442Y012543D01*
X030442Y012385D02*
X030043Y012385D01*
X029962Y012226D02*
X030442Y012226D01*
X030442Y012068D02*
X029881Y012068D01*
X029726Y011909D02*
X030442Y011909D01*
X030442Y011751D02*
X029568Y011751D01*
X029274Y011592D02*
X030442Y011592D01*
X030442Y011117D02*
X026930Y011117D01*
X026930Y010958D02*
X030442Y010958D01*
X030442Y010800D02*
X026930Y010800D01*
X026930Y010641D02*
X030442Y010641D01*
X030442Y010483D02*
X026930Y010483D01*
X026930Y010324D02*
X030442Y010324D01*
X030442Y010166D02*
X029258Y010166D01*
X029141Y010233D02*
X029399Y010084D01*
X029609Y009874D01*
X029758Y009616D01*
X029835Y009329D01*
X029835Y009031D01*
X029758Y008744D01*
X029609Y008486D01*
X029399Y008276D01*
X029141Y008127D01*
X028854Y008050D01*
X028556Y008050D01*
X028269Y008127D01*
X028011Y008276D01*
X027801Y008486D01*
X027652Y008744D01*
X027575Y009031D01*
X027575Y009329D01*
X027652Y009616D01*
X027801Y009874D01*
X028011Y010084D01*
X028269Y010233D01*
X028556Y010310D01*
X028854Y010310D01*
X029141Y010233D01*
X029476Y010007D02*
X030442Y010007D01*
X030442Y009849D02*
X029624Y009849D01*
X029715Y009690D02*
X030442Y009690D01*
X030442Y009532D02*
X029781Y009532D01*
X029823Y009373D02*
X030442Y009373D01*
X030442Y009215D02*
X029835Y009215D01*
X029835Y009056D02*
X030442Y009056D01*
X030442Y008898D02*
X029799Y008898D01*
X029755Y008739D02*
X030442Y008739D01*
X030442Y008581D02*
X029664Y008581D01*
X029545Y008422D02*
X030442Y008422D01*
X030442Y008264D02*
X029378Y008264D01*
X029059Y008105D02*
X030442Y008105D01*
X030442Y007947D02*
X026930Y007947D01*
X026930Y008105D02*
X028351Y008105D01*
X028032Y008264D02*
X026930Y008264D01*
X026930Y008422D02*
X027865Y008422D01*
X027746Y008581D02*
X026930Y008581D01*
X026930Y008739D02*
X027655Y008739D01*
X027611Y008898D02*
X026930Y008898D01*
X026930Y009056D02*
X027575Y009056D01*
X027575Y009215D02*
X026930Y009215D01*
X026930Y009373D02*
X027587Y009373D01*
X027629Y009532D02*
X026930Y009532D01*
X026930Y009690D02*
X027695Y009690D01*
X027786Y009849D02*
X026930Y009849D01*
X026930Y010007D02*
X027934Y010007D01*
X028152Y010166D02*
X026930Y010166D01*
X026555Y010800D02*
X021610Y010800D01*
X021610Y010958D02*
X026555Y010958D01*
X026555Y011117D02*
X021610Y011117D01*
X019153Y009849D02*
X018620Y009849D01*
X018461Y010007D02*
X018995Y010007D01*
X018861Y010166D02*
X018303Y010166D01*
X018144Y010324D02*
X018813Y010324D01*
X018813Y010483D02*
X017986Y010483D01*
X017827Y010641D02*
X018813Y010641D01*
X018813Y010800D02*
X017669Y010800D01*
X017510Y010958D02*
X018813Y010958D01*
X018813Y011117D02*
X017352Y011117D01*
X017193Y011275D02*
X018813Y011275D01*
X018813Y011434D02*
X017035Y011434D01*
X016876Y011592D02*
X018813Y011592D01*
X018813Y011751D02*
X016718Y011751D01*
X016559Y011909D02*
X018813Y011909D01*
X018813Y012068D02*
X017653Y012068D01*
X017490Y012000D02*
X017120Y012000D01*
X016778Y012142D01*
X016517Y012403D01*
X016375Y012745D01*
X016375Y013115D01*
X016517Y013457D01*
X016778Y013718D01*
X017120Y013860D01*
X017490Y013860D01*
X017832Y013718D01*
X018093Y013457D01*
X018235Y013115D01*
X018235Y012745D01*
X018093Y012403D01*
X017832Y012142D01*
X017490Y012000D01*
X017916Y012226D02*
X018631Y012226D01*
X018473Y012385D02*
X018075Y012385D01*
X018151Y012543D02*
X018396Y012543D01*
X018331Y012702D02*
X018217Y012702D01*
X018235Y012860D02*
X018313Y012860D01*
X018313Y013019D02*
X018235Y013019D01*
X018209Y013177D02*
X018338Y013177D01*
X018404Y013336D02*
X018144Y013336D01*
X018056Y013494D02*
X018491Y013494D01*
X018650Y013653D02*
X017898Y013653D01*
X017608Y013811D02*
X018939Y013811D01*
X017002Y013811D02*
X015671Y013811D01*
X015960Y013653D02*
X016712Y013653D01*
X016554Y013494D02*
X016119Y013494D01*
X016206Y013336D02*
X016466Y013336D01*
X016401Y013177D02*
X016272Y013177D01*
X016297Y013019D02*
X016375Y013019D01*
X016375Y012860D02*
X016297Y012860D01*
X016279Y012702D02*
X016393Y012702D01*
X016459Y012543D02*
X016214Y012543D01*
X016137Y012385D02*
X016535Y012385D01*
X016694Y012226D02*
X016242Y012226D01*
X016401Y012068D02*
X016957Y012068D01*
X015818Y011434D02*
X015035Y011434D01*
X014876Y011592D02*
X015660Y011592D01*
X015501Y011751D02*
X014718Y011751D01*
X014559Y011909D02*
X015343Y011909D01*
X015020Y012068D02*
X014401Y012068D01*
X014242Y012226D02*
X014756Y012226D01*
X014598Y012385D02*
X014200Y012385D01*
X014276Y012543D02*
X014521Y012543D01*
X014456Y012702D02*
X014342Y012702D01*
X014360Y012860D02*
X014438Y012860D01*
X014438Y013019D02*
X014360Y013019D01*
X014334Y013177D02*
X014463Y013177D01*
X014529Y013336D02*
X014269Y013336D01*
X014181Y013494D02*
X014616Y013494D01*
X014775Y013653D02*
X014023Y013653D01*
X013733Y013811D02*
X015064Y013811D01*
X013127Y013811D02*
X003795Y013811D01*
X003871Y013653D02*
X010989Y013653D01*
X012342Y012702D02*
X012518Y012702D01*
X012584Y012543D02*
X012285Y012543D01*
X012183Y012385D02*
X012660Y012385D01*
X012819Y012226D02*
X012021Y012226D01*
X011674Y012068D02*
X013082Y012068D01*
X011572Y012068D02*
X011413Y012068D01*
X011413Y012226D02*
X011572Y012226D01*
X011572Y012385D02*
X011413Y012385D01*
X011413Y012543D02*
X011572Y012543D01*
X008948Y012543D02*
X008912Y012543D01*
X008912Y012702D02*
X008948Y012702D01*
X008948Y012860D02*
X008912Y012860D01*
X008912Y013019D02*
X008948Y013019D01*
X008948Y013177D02*
X008912Y013177D01*
X008912Y013336D02*
X008948Y013336D01*
X008620Y013336D02*
X008316Y013336D01*
X008434Y013177D02*
X008483Y013177D01*
X008474Y012702D02*
X008441Y012702D01*
X008335Y012543D02*
X008596Y012543D01*
X007525Y012543D02*
X006764Y012543D01*
X006762Y012541D02*
X006819Y012598D01*
X006866Y012663D01*
X006903Y012734D01*
X006927Y012811D01*
X006940Y012890D01*
X006940Y012912D01*
X006448Y012912D01*
X006448Y012420D01*
X006470Y012420D01*
X006549Y012433D01*
X006626Y012457D01*
X006697Y012494D01*
X006762Y012541D01*
X006886Y012702D02*
X007418Y012702D01*
X007370Y012860D02*
X006935Y012860D01*
X006940Y012948D02*
X006940Y012970D01*
X006927Y013049D01*
X006903Y013126D01*
X006866Y013197D01*
X006819Y013262D01*
X006762Y013319D01*
X006697Y013366D01*
X006626Y013403D01*
X006549Y013427D01*
X006470Y013440D01*
X006448Y013440D01*
X006448Y012948D01*
X006940Y012948D01*
X006932Y013019D02*
X007370Y013019D01*
X007426Y013177D02*
X006877Y013177D01*
X006740Y013336D02*
X007544Y013336D01*
X006448Y013336D02*
X006412Y013336D01*
X006412Y013177D02*
X006448Y013177D01*
X006448Y013019D02*
X006412Y013019D01*
X006412Y012860D02*
X006448Y012860D01*
X006448Y012702D02*
X006412Y012702D01*
X006412Y012543D02*
X006448Y012543D01*
X006096Y012543D02*
X005835Y012543D01*
X005941Y012702D02*
X005974Y012702D01*
X005983Y013177D02*
X005934Y013177D01*
X005816Y013336D02*
X006120Y013336D01*
X003664Y013970D02*
X026555Y013970D01*
X026555Y014128D02*
X003517Y014128D01*
X003446Y014204D02*
X003446Y014204D01*
X003304Y014287D02*
X026555Y014287D01*
X026555Y014445D02*
X003029Y014445D01*
X002552Y014555D02*
X002552Y014555D01*
X002067Y014519D02*
X002067Y014519D01*
X001878Y014445D02*
X000660Y014445D01*
X000660Y014287D02*
X001546Y014287D01*
X001615Y014342D02*
X001615Y014342D01*
X001347Y014128D02*
X000660Y014128D01*
X000660Y013970D02*
X001188Y013970D01*
X001080Y013811D02*
X000660Y013811D01*
X000660Y013653D02*
X000972Y013653D01*
X000961Y013637D02*
X000961Y013637D01*
X000917Y013494D02*
X000660Y013494D01*
X000660Y013336D02*
X000868Y013336D01*
X000819Y013177D02*
X000660Y013177D01*
X000660Y013019D02*
X000818Y013019D01*
X000818Y012860D02*
X000660Y012860D01*
X000660Y012702D02*
X000818Y012702D01*
X000863Y012543D02*
X000660Y012543D01*
X000660Y012385D02*
X000912Y012385D01*
X000960Y012226D02*
X000660Y012226D01*
X000660Y012068D02*
X001067Y012068D01*
X001175Y011909D02*
X000660Y011909D01*
X000660Y011751D02*
X000965Y011751D01*
X001235Y011821D02*
X001235Y011821D01*
X001235Y011821D01*
X001249Y011751D02*
X001324Y011751D01*
X001422Y011592D02*
X001523Y011592D01*
X001615Y011518D02*
X001615Y011518D01*
X001521Y011434D02*
X001831Y011434D01*
X001601Y010641D02*
X008886Y010641D01*
X007390Y010483D02*
X007390Y010483D01*
X007390Y010324D02*
X007390Y010324D01*
X006938Y010483D02*
X005523Y010483D01*
X005600Y010324D02*
X006810Y010324D01*
X006810Y010166D02*
X005600Y010166D01*
X005600Y010007D02*
X006815Y010007D01*
X006578Y009849D02*
X005600Y009849D01*
X005600Y009690D02*
X006433Y009690D01*
X006400Y009532D02*
X005600Y009532D01*
X005539Y009373D02*
X006400Y009373D01*
X006400Y009215D02*
X005550Y009215D01*
X005550Y009056D02*
X006400Y009056D01*
X006400Y008898D02*
X005527Y008898D01*
X005550Y008739D02*
X006400Y008739D01*
X006400Y008581D02*
X005550Y008581D01*
X005513Y008422D02*
X006400Y008422D01*
X006400Y008264D02*
X005550Y008264D01*
X005550Y008105D02*
X006400Y008105D01*
X006400Y007947D02*
X005518Y007947D01*
X005550Y007788D02*
X006400Y007788D01*
X006460Y007630D02*
X005550Y007630D01*
X005534Y007471D02*
X006618Y007471D01*
X006878Y006837D02*
X005482Y006837D01*
X005250Y006679D02*
X015411Y006679D01*
X015569Y006520D02*
X005250Y006520D01*
X005250Y006362D02*
X015650Y006362D01*
X015650Y006203D02*
X005250Y006203D01*
X005250Y006045D02*
X015650Y006045D01*
X015650Y005886D02*
X005250Y005886D01*
X005250Y005728D02*
X015650Y005728D01*
X015650Y005569D02*
X005250Y005569D01*
X005250Y005411D02*
X015650Y005411D01*
X015267Y005252D02*
X014834Y005252D01*
X014838Y005246D02*
X014814Y005287D01*
X014781Y005320D01*
X014740Y005344D01*
X014694Y005356D01*
X014315Y005356D01*
X014315Y004820D01*
X014850Y004820D01*
X014850Y005200D01*
X014838Y005246D01*
X014850Y005094D02*
X015267Y005094D01*
X015267Y004935D02*
X014850Y004935D01*
X015267Y004777D02*
X014315Y004777D01*
X014315Y004820D02*
X014315Y004705D01*
X014850Y004705D01*
X014850Y004326D01*
X014838Y004280D01*
X014814Y004239D01*
X014781Y004205D01*
X014740Y004182D01*
X014694Y004169D01*
X014315Y004169D01*
X014315Y004705D01*
X014199Y004705D01*
X013663Y004705D01*
X013663Y004326D01*
X013676Y004280D01*
X013699Y004239D01*
X013733Y004205D01*
X013774Y004182D01*
X013820Y004169D01*
X014199Y004169D01*
X014199Y004705D01*
X014199Y004820D01*
X013663Y004820D01*
X013663Y005200D01*
X013676Y005246D01*
X013699Y005287D01*
X013733Y005320D01*
X013774Y005344D01*
X013820Y005356D01*
X014199Y005356D01*
X014199Y004820D01*
X014315Y004820D01*
X014315Y004935D02*
X014199Y004935D01*
X014199Y004777D02*
X012661Y004777D01*
X012661Y004820D02*
X013197Y004820D01*
X013197Y005200D01*
X013184Y005246D01*
X013161Y005287D01*
X013127Y005320D01*
X013086Y005344D01*
X013040Y005356D01*
X012661Y005356D01*
X012661Y004820D01*
X012661Y004705D01*
X013197Y004705D01*
X013197Y004326D01*
X013184Y004280D01*
X013161Y004239D01*
X013127Y004205D01*
X013086Y004182D01*
X013040Y004169D01*
X012661Y004169D01*
X012661Y004705D01*
X012545Y004705D01*
X012010Y004705D01*
X012010Y004326D01*
X012022Y004280D01*
X012046Y004239D01*
X012079Y004205D01*
X012120Y004182D01*
X012166Y004169D01*
X012545Y004169D01*
X012545Y004705D01*
X012545Y004820D01*
X012010Y004820D01*
X012010Y005200D01*
X012022Y005246D01*
X012046Y005287D01*
X012079Y005320D01*
X012120Y005344D01*
X012166Y005356D01*
X012545Y005356D01*
X012545Y004820D01*
X012661Y004820D01*
X012661Y004935D02*
X012545Y004935D01*
X012545Y004777D02*
X011007Y004777D01*
X011007Y004820D02*
X011543Y004820D01*
X011543Y005200D01*
X011531Y005246D01*
X011507Y005287D01*
X011474Y005320D01*
X011433Y005344D01*
X011387Y005356D01*
X011007Y005356D01*
X011007Y004820D01*
X011007Y004705D01*
X011007Y004169D01*
X011387Y004169D01*
X011433Y004182D01*
X011474Y004205D01*
X011507Y004239D01*
X011531Y004280D01*
X011543Y004326D01*
X011543Y004705D01*
X011007Y004705D01*
X010892Y004705D01*
X010356Y004705D01*
X010356Y004326D01*
X010369Y004280D01*
X010392Y004239D01*
X010426Y004205D01*
X010467Y004182D01*
X010513Y004169D01*
X010892Y004169D01*
X010892Y004705D01*
X010892Y004820D01*
X010356Y004820D01*
X010356Y005200D01*
X010369Y005246D01*
X010392Y005287D01*
X010426Y005320D01*
X010467Y005344D01*
X010513Y005356D01*
X010892Y005356D01*
X010892Y004820D01*
X011007Y004820D01*
X011007Y004935D02*
X010892Y004935D01*
X010892Y004777D02*
X009940Y004777D01*
X009940Y004935D02*
X010356Y004935D01*
X010356Y005094D02*
X009940Y005094D01*
X009940Y005252D02*
X010372Y005252D01*
X009940Y005271D02*
X009805Y005406D01*
X008787Y005406D01*
X008653Y005271D01*
X008653Y004254D01*
X008787Y004119D01*
X009805Y004119D01*
X009940Y004254D01*
X009940Y005271D01*
X009940Y004618D02*
X010356Y004618D01*
X010356Y004460D02*
X009940Y004460D01*
X009940Y004301D02*
X010363Y004301D01*
X010892Y004301D02*
X011007Y004301D01*
X011007Y004460D02*
X010892Y004460D01*
X010892Y004618D02*
X011007Y004618D01*
X011543Y004618D02*
X012010Y004618D01*
X012010Y004460D02*
X011543Y004460D01*
X011536Y004301D02*
X012016Y004301D01*
X012545Y004301D02*
X012661Y004301D01*
X012661Y004460D02*
X012545Y004460D01*
X012545Y004618D02*
X012661Y004618D01*
X013197Y004618D02*
X013663Y004618D01*
X013663Y004460D02*
X013197Y004460D01*
X013190Y004301D02*
X013670Y004301D01*
X014199Y004301D02*
X014315Y004301D01*
X014315Y004460D02*
X014199Y004460D01*
X014199Y004618D02*
X014315Y004618D01*
X014850Y004618D02*
X015267Y004618D01*
X015267Y004460D02*
X014850Y004460D01*
X014844Y004301D02*
X015267Y004301D01*
X015378Y004143D02*
X009828Y004143D01*
X008764Y004143D02*
X008174Y004143D01*
X008151Y004119D02*
X008286Y004254D01*
X008286Y005271D01*
X008151Y005406D01*
X007134Y005406D01*
X006999Y005271D01*
X006999Y004254D01*
X007134Y004119D01*
X008151Y004119D01*
X008286Y004301D02*
X008653Y004301D01*
X008653Y004460D02*
X008286Y004460D01*
X008286Y004618D02*
X008653Y004618D01*
X008653Y004777D02*
X008286Y004777D01*
X008286Y004935D02*
X008653Y004935D01*
X008653Y005094D02*
X008286Y005094D01*
X008286Y005252D02*
X008653Y005252D01*
X006999Y005252D02*
X006632Y005252D01*
X006632Y005271D02*
X006498Y005406D01*
X005480Y005406D01*
X005346Y005271D01*
X005346Y004254D01*
X005480Y004119D01*
X006498Y004119D01*
X006632Y004254D01*
X006632Y005271D01*
X006632Y005094D02*
X006999Y005094D01*
X006999Y004935D02*
X006632Y004935D01*
X006632Y004777D02*
X006999Y004777D01*
X006999Y004618D02*
X006632Y004618D01*
X006632Y004460D02*
X006999Y004460D01*
X006999Y004301D02*
X006632Y004301D01*
X006521Y004143D02*
X007111Y004143D01*
X005457Y004143D02*
X005250Y004143D01*
X005250Y004301D02*
X005346Y004301D01*
X005346Y004460D02*
X005250Y004460D01*
X005250Y004618D02*
X005346Y004618D01*
X005346Y004777D02*
X005250Y004777D01*
X005250Y004935D02*
X005346Y004935D01*
X005346Y005094D02*
X005250Y005094D01*
X005250Y005252D02*
X005346Y005252D01*
X004690Y005569D02*
X004569Y005569D01*
X004690Y005728D02*
X001402Y005728D01*
X001402Y005886D02*
X004690Y005886D01*
X004690Y006045D02*
X001390Y006045D01*
X001278Y006203D02*
X004690Y006203D01*
X004690Y006362D02*
X001074Y006362D01*
X001285Y006520D02*
X004690Y006520D01*
X004690Y006679D02*
X001444Y006679D01*
X001524Y006837D02*
X004458Y006837D01*
X004340Y006996D02*
X001501Y006996D01*
X001628Y007154D02*
X004340Y007154D01*
X004340Y007313D02*
X001752Y007313D01*
X001766Y007471D02*
X004406Y007471D01*
X004390Y007630D02*
X001669Y007630D01*
X001646Y007788D02*
X004390Y007788D01*
X004422Y007947D02*
X001624Y007947D01*
X001471Y008105D02*
X004390Y008105D01*
X004390Y008264D02*
X001400Y008264D01*
X001303Y008422D02*
X004427Y008422D01*
X004390Y008581D02*
X001730Y008581D01*
X001767Y008739D02*
X004390Y008739D01*
X004413Y008898D02*
X001721Y008898D01*
X001629Y009056D02*
X004390Y009056D01*
X004390Y009215D02*
X001645Y009215D01*
X001550Y009373D02*
X004401Y009373D01*
X004340Y009532D02*
X001402Y009532D01*
X001355Y009690D02*
X004340Y009690D01*
X004340Y009849D02*
X001690Y009849D01*
X001767Y010007D02*
X004340Y010007D01*
X004340Y010166D02*
X001743Y010166D01*
X001607Y010324D02*
X004340Y010324D01*
X004417Y010483D02*
X001646Y010483D01*
X004970Y009056D02*
X004970Y009056D01*
X004970Y008898D02*
X004970Y008898D01*
X004970Y008739D02*
X004970Y008739D01*
X004970Y008581D02*
X004970Y008581D01*
X004970Y008422D02*
X004970Y008422D01*
X004970Y008264D02*
X004970Y008264D01*
X004970Y008105D02*
X004970Y008105D01*
X004970Y007947D02*
X004970Y007947D01*
X004970Y007788D02*
X004970Y007788D01*
X007902Y006837D02*
X015252Y006837D01*
X015094Y006996D02*
X010516Y006996D01*
X010671Y007154D02*
X014935Y007154D01*
X014777Y007313D02*
X010710Y007313D01*
X010710Y007471D02*
X014618Y007471D01*
X014460Y007630D02*
X010710Y007630D01*
X010710Y007788D02*
X014301Y007788D01*
X014143Y007947D02*
X010710Y007947D01*
X010710Y008105D02*
X013984Y008105D01*
X013826Y008264D02*
X010710Y008264D01*
X010710Y008422D02*
X013667Y008422D01*
X013509Y008581D02*
X010710Y008581D01*
X010710Y008739D02*
X013350Y008739D01*
X013192Y008898D02*
X010710Y008898D01*
X010710Y009056D02*
X013033Y009056D01*
X010150Y008400D02*
X010150Y007460D01*
X009990Y007460D01*
X009990Y007632D01*
X009602Y007632D01*
X009602Y007728D01*
X009990Y007728D01*
X009990Y007999D01*
X009978Y008045D01*
X009954Y008086D01*
X009920Y008119D01*
X009879Y008143D01*
X009836Y008155D01*
X009905Y008155D01*
X010040Y008289D01*
X010040Y008400D01*
X010150Y008400D01*
X010150Y008264D02*
X010014Y008264D01*
X009935Y008105D02*
X010150Y008105D01*
X010150Y007947D02*
X009990Y007947D01*
X009990Y007788D02*
X010150Y007788D01*
X010150Y007630D02*
X009990Y007630D01*
X009990Y007471D02*
X010150Y007471D01*
X010892Y005252D02*
X011007Y005252D01*
X011007Y005094D02*
X010892Y005094D01*
X011543Y005094D02*
X012010Y005094D01*
X012026Y005252D02*
X011527Y005252D01*
X011543Y004935D02*
X012010Y004935D01*
X012545Y005094D02*
X012661Y005094D01*
X012661Y005252D02*
X012545Y005252D01*
X013181Y005252D02*
X013679Y005252D01*
X013663Y005094D02*
X013197Y005094D01*
X013197Y004935D02*
X013663Y004935D01*
X014199Y005094D02*
X014315Y005094D01*
X014315Y005252D02*
X014199Y005252D01*
X016442Y004143D02*
X018686Y004143D01*
X018574Y004301D02*
X018151Y004301D01*
X018145Y004280D02*
X018157Y004326D01*
X018157Y004705D01*
X017622Y004705D01*
X017622Y004820D01*
X018157Y004820D01*
X018157Y005200D01*
X018145Y005246D01*
X018121Y005287D01*
X018088Y005320D01*
X018047Y005344D01*
X018001Y005356D01*
X017622Y005356D01*
X017622Y004820D01*
X017506Y004820D01*
X017506Y004705D01*
X016970Y004705D01*
X016970Y004326D01*
X016983Y004280D01*
X017006Y004239D01*
X017040Y004205D01*
X017081Y004182D01*
X017127Y004169D01*
X017506Y004169D01*
X017506Y004705D01*
X017622Y004705D01*
X017622Y004169D01*
X018001Y004169D01*
X018047Y004182D01*
X018088Y004205D01*
X018121Y004239D01*
X018145Y004280D01*
X018157Y004460D02*
X018574Y004460D01*
X018574Y004618D02*
X018157Y004618D01*
X018574Y004777D02*
X017622Y004777D01*
X017506Y004777D02*
X016554Y004777D01*
X016554Y004935D02*
X016970Y004935D01*
X016970Y004820D02*
X017506Y004820D01*
X017506Y005356D01*
X017127Y005356D01*
X017081Y005344D01*
X017040Y005320D01*
X017006Y005287D01*
X016983Y005246D01*
X016970Y005200D01*
X016970Y004820D01*
X016970Y004618D02*
X016554Y004618D01*
X016554Y004460D02*
X016970Y004460D01*
X016977Y004301D02*
X016554Y004301D01*
X017506Y004301D02*
X017622Y004301D01*
X017622Y004460D02*
X017506Y004460D01*
X017506Y004618D02*
X017622Y004618D01*
X017622Y004935D02*
X017506Y004935D01*
X017506Y005094D02*
X017622Y005094D01*
X017622Y005252D02*
X017506Y005252D01*
X016986Y005252D02*
X016554Y005252D01*
X016554Y005094D02*
X016970Y005094D01*
X018141Y005252D02*
X018574Y005252D01*
X018574Y005094D02*
X018157Y005094D01*
X018157Y004935D02*
X018574Y004935D01*
X020950Y005569D02*
X022291Y005569D01*
X022036Y005411D02*
X021124Y005411D01*
X021514Y005252D02*
X021878Y005252D01*
X021781Y005094D02*
X021514Y005094D01*
X021514Y004935D02*
X021708Y004935D01*
X021665Y004777D02*
X021514Y004777D01*
X021514Y004618D02*
X021651Y004618D01*
X021651Y004460D02*
X021514Y004460D01*
X021514Y004301D02*
X021688Y004301D01*
X021739Y004143D02*
X021403Y004143D01*
X021301Y003984D02*
X021830Y003984D01*
X021963Y003826D02*
X021301Y003826D01*
X026110Y003350D02*
X026555Y003350D01*
X026555Y003192D02*
X026110Y003192D01*
X026110Y003033D02*
X026555Y003033D01*
X026555Y002875D02*
X026110Y002875D01*
X026110Y002716D02*
X026555Y002716D01*
X026555Y002558D02*
X026110Y002558D01*
X026110Y002399D02*
X026555Y002399D01*
X026555Y002241D02*
X026110Y002241D01*
X026110Y002082D02*
X026555Y002082D01*
X026555Y001924D02*
X026110Y001924D01*
X026110Y001765D02*
X026555Y001765D01*
X026555Y001607D02*
X026110Y001607D01*
X026110Y001448D02*
X026555Y001448D01*
X026555Y001290D02*
X026087Y001290D01*
X025989Y001131D02*
X026555Y001131D01*
X026930Y001131D02*
X028010Y001131D01*
X027810Y001233D02*
X028223Y001022D01*
X028680Y000950D01*
X029137Y001022D01*
X029137Y001022D01*
X029550Y001233D01*
X029877Y001560D01*
X030088Y001973D01*
X030160Y002430D01*
X030088Y002887D01*
X030088Y002887D01*
X029877Y003300D01*
X029550Y003627D01*
X029137Y003838D01*
X028680Y003910D01*
X028223Y003838D01*
X027810Y003627D01*
X027483Y003300D01*
X027272Y002887D01*
X027200Y002430D01*
X027200Y002430D01*
X027272Y001973D01*
X027483Y001560D01*
X027810Y001233D01*
X027753Y001290D02*
X026930Y001290D01*
X026930Y001448D02*
X027595Y001448D01*
X027483Y001560D02*
X027483Y001560D01*
X027459Y001607D02*
X026930Y001607D01*
X026930Y001765D02*
X027378Y001765D01*
X027297Y001924D02*
X026930Y001924D01*
X026930Y002082D02*
X027255Y002082D01*
X027230Y002241D02*
X026930Y002241D01*
X026930Y002399D02*
X027205Y002399D01*
X027220Y002558D02*
X026930Y002558D01*
X026930Y002716D02*
X027245Y002716D01*
X027270Y002875D02*
X026930Y002875D01*
X026930Y003033D02*
X027347Y003033D01*
X027272Y002887D02*
X027272Y002887D01*
X027427Y003192D02*
X026930Y003192D01*
X026930Y003350D02*
X027533Y003350D01*
X027483Y003300D02*
X027483Y003300D01*
X027691Y003509D02*
X026930Y003509D01*
X026930Y003667D02*
X027888Y003667D01*
X027810Y003627D02*
X027810Y003627D01*
X028199Y003826D02*
X026930Y003826D01*
X026930Y003984D02*
X030442Y003984D01*
X030442Y003826D02*
X029161Y003826D01*
X029137Y003838D02*
X029137Y003838D01*
X029472Y003667D02*
X030442Y003667D01*
X030442Y003509D02*
X029669Y003509D01*
X029550Y003627D02*
X029550Y003627D01*
X029827Y003350D02*
X030442Y003350D01*
X030442Y003192D02*
X029933Y003192D01*
X029877Y003300D02*
X029877Y003300D01*
X030013Y003033D02*
X030442Y003033D01*
X030442Y002875D02*
X030090Y002875D01*
X030115Y002716D02*
X030442Y002716D01*
X030442Y002558D02*
X030140Y002558D01*
X030155Y002399D02*
X030442Y002399D01*
X030442Y002241D02*
X030130Y002241D01*
X030105Y002082D02*
X030442Y002082D01*
X030442Y001924D02*
X030063Y001924D01*
X030088Y001973D02*
X030088Y001973D01*
X029982Y001765D02*
X030442Y001765D01*
X030442Y001607D02*
X029901Y001607D01*
X029877Y001560D02*
X029877Y001560D01*
X029765Y001448D02*
X030442Y001448D01*
X030442Y001290D02*
X029607Y001290D01*
X029550Y001233D02*
X029550Y001233D01*
X029350Y001131D02*
X030442Y001131D01*
X030442Y000973D02*
X028822Y000973D01*
X028680Y000950D02*
X028680Y000950D01*
X028538Y000973D02*
X026930Y000973D01*
X026930Y000814D02*
X030442Y000814D01*
X028223Y001022D02*
X028223Y001022D01*
X028223Y003838D02*
X028223Y003838D01*
X028680Y003910D02*
X028680Y003910D01*
X026930Y004143D02*
X030442Y004143D01*
X030442Y004301D02*
X026930Y004301D01*
X026930Y004460D02*
X030442Y004460D01*
X030442Y004618D02*
X026930Y004618D01*
X026930Y004777D02*
X030442Y004777D01*
X030442Y004935D02*
X026930Y004935D01*
X026930Y005094D02*
X030442Y005094D01*
X030442Y005252D02*
X026930Y005252D01*
X026930Y005411D02*
X030442Y005411D01*
X030442Y005569D02*
X026930Y005569D01*
X026930Y005728D02*
X030442Y005728D01*
X030442Y005886D02*
X026930Y005886D01*
X026930Y006045D02*
X030442Y006045D01*
X030442Y006203D02*
X026930Y006203D01*
X026930Y006362D02*
X030442Y006362D01*
X030442Y006520D02*
X026930Y006520D01*
X026930Y006679D02*
X030442Y006679D01*
X030442Y006837D02*
X026930Y006837D01*
X026930Y006996D02*
X030442Y006996D01*
X030442Y007154D02*
X026930Y007154D01*
X026930Y007313D02*
X030442Y007313D01*
X030442Y007471D02*
X026930Y007471D01*
X026930Y007630D02*
X030442Y007630D01*
X030442Y007788D02*
X026930Y007788D01*
X022124Y008739D02*
X021479Y008739D01*
X021321Y008898D02*
X021729Y008898D01*
X021571Y009056D02*
X021162Y009056D01*
X021004Y009215D02*
X021412Y009215D01*
X021254Y009373D02*
X020845Y009373D01*
X020104Y008898D02*
X019571Y008898D01*
X019412Y009056D02*
X019946Y009056D01*
X019787Y009215D02*
X019254Y009215D01*
X019095Y009373D02*
X019629Y009373D01*
X019470Y009532D02*
X018937Y009532D01*
X018778Y009690D02*
X019312Y009690D01*
X019729Y008739D02*
X020263Y008739D01*
X020421Y008581D02*
X019888Y008581D01*
X020046Y008422D02*
X020580Y008422D01*
X020738Y008264D02*
X020205Y008264D01*
X020363Y008105D02*
X020897Y008105D01*
X021055Y007947D02*
X020522Y007947D01*
X020680Y007788D02*
X021253Y007788D01*
X015977Y011275D02*
X015193Y011275D01*
X008896Y011434D02*
X008210Y011434D01*
X003708Y005569D02*
X001402Y005569D01*
X001343Y005411D02*
X003454Y005411D01*
X003295Y005252D02*
X001390Y005252D01*
X001402Y005094D02*
X003198Y005094D01*
X003125Y004935D02*
X001402Y004935D01*
X001366Y004777D02*
X003083Y004777D01*
X003068Y004618D02*
X001375Y004618D01*
X001402Y004460D02*
X003068Y004460D01*
X003106Y004301D02*
X001396Y004301D01*
X001402Y004143D02*
X003156Y004143D01*
X003248Y003984D02*
X002865Y003984D01*
X002552Y004055D02*
X002552Y004055D01*
X002067Y004019D02*
X002067Y004019D01*
X001978Y003984D02*
X001366Y003984D01*
X001220Y003826D02*
X001595Y003826D01*
X001615Y003842D02*
X001615Y003842D01*
X003236Y003826D02*
X003381Y003826D01*
X003446Y003704D02*
X003446Y003704D01*
X003481Y003667D02*
X003582Y003667D01*
X003628Y003509D02*
X004690Y003509D01*
X004690Y003350D02*
X003775Y003350D01*
X003852Y003192D02*
X004690Y003192D01*
X004690Y003033D02*
X003929Y003033D01*
X003988Y002910D02*
X003988Y002910D01*
X003993Y002875D02*
X004690Y002875D01*
X004690Y002716D02*
X004017Y002716D01*
X004041Y002558D02*
X004690Y002558D01*
X004690Y002399D02*
X004055Y002399D01*
X004031Y002241D02*
X004690Y002241D01*
X004690Y002082D02*
X004008Y002082D01*
X003988Y001950D02*
X003988Y001950D01*
X003975Y001924D02*
X004690Y001924D01*
X004719Y001765D02*
X003899Y001765D01*
X003822Y001607D02*
X004858Y001607D01*
X005016Y001448D02*
X003718Y001448D01*
X003777Y001512D02*
X003777Y001512D01*
X003571Y001290D02*
X005175Y001290D01*
X005491Y001765D02*
X007363Y001765D01*
X009933Y002082D02*
X010387Y002082D01*
X010392Y002073D02*
X010426Y002040D01*
X010467Y002016D01*
X010513Y002004D01*
X010892Y002004D01*
X010892Y002540D01*
X010356Y002540D01*
X010356Y002160D01*
X010369Y002114D01*
X010392Y002073D01*
X010356Y002241D02*
X009940Y002241D01*
X009940Y002399D02*
X010356Y002399D01*
X010356Y002655D02*
X010892Y002655D01*
X010892Y002540D01*
X011007Y002540D01*
X011007Y002004D01*
X011387Y002004D01*
X011433Y002016D01*
X011474Y002040D01*
X011507Y002073D01*
X011531Y002114D01*
X011543Y002160D01*
X011543Y002540D01*
X011007Y002540D01*
X011007Y002655D01*
X010892Y002655D01*
X010892Y003191D01*
X010513Y003191D01*
X010467Y003178D01*
X010426Y003155D01*
X010392Y003121D01*
X010369Y003080D01*
X010356Y003034D01*
X010356Y002655D01*
X010356Y002716D02*
X009940Y002716D01*
X009940Y002558D02*
X010892Y002558D01*
X011007Y002558D02*
X011960Y002558D01*
X011960Y002716D02*
X011543Y002716D01*
X011543Y002655D02*
X011543Y003034D01*
X011531Y003080D01*
X011507Y003121D01*
X011474Y003155D01*
X011433Y003178D01*
X011387Y003191D01*
X011007Y003191D01*
X011007Y002655D01*
X011543Y002655D01*
X011543Y002875D02*
X011960Y002875D01*
X011960Y003033D02*
X011543Y003033D01*
X012045Y003192D02*
X009854Y003192D01*
X009940Y003033D02*
X010356Y003033D01*
X010356Y002875D02*
X009940Y002875D01*
X010892Y002875D02*
X011007Y002875D01*
X011007Y003033D02*
X010892Y003033D01*
X010892Y002716D02*
X011007Y002716D01*
X011007Y002399D02*
X010892Y002399D01*
X010892Y002241D02*
X011007Y002241D01*
X011007Y002082D02*
X010892Y002082D01*
X011512Y002082D02*
X011967Y002082D01*
X011960Y002241D02*
X011543Y002241D01*
X011543Y002399D02*
X011960Y002399D01*
X013033Y001924D02*
X015480Y001924D01*
X015274Y002082D02*
X014819Y002082D01*
X014814Y002073D02*
X014838Y002114D01*
X014850Y002160D01*
X014850Y002540D01*
X014315Y002540D01*
X014315Y002655D01*
X014850Y002655D01*
X014850Y003034D01*
X014838Y003080D01*
X014814Y003121D01*
X014781Y003155D01*
X014740Y003178D01*
X014694Y003191D01*
X014315Y003191D01*
X014315Y002655D01*
X014199Y002655D01*
X014199Y002540D01*
X013663Y002540D01*
X013663Y002160D01*
X013676Y002114D01*
X013699Y002073D01*
X013733Y002040D01*
X013774Y002016D01*
X013820Y002004D01*
X014199Y002004D01*
X014199Y002540D01*
X014315Y002540D01*
X014315Y002004D01*
X014694Y002004D01*
X014740Y002016D01*
X014781Y002040D01*
X014814Y002073D01*
X014850Y002241D02*
X015267Y002241D01*
X015267Y002399D02*
X014850Y002399D01*
X015267Y002558D02*
X014315Y002558D01*
X014199Y002558D02*
X013247Y002558D01*
X013247Y002716D02*
X013663Y002716D01*
X013663Y002655D02*
X014199Y002655D01*
X014199Y003191D01*
X013820Y003191D01*
X013774Y003178D01*
X013733Y003155D01*
X013699Y003121D01*
X013676Y003080D01*
X013663Y003034D01*
X013663Y002655D01*
X013663Y002875D02*
X013247Y002875D01*
X013247Y003033D02*
X013663Y003033D01*
X013161Y003192D02*
X015352Y003192D01*
X015267Y003033D02*
X014850Y003033D01*
X014850Y002875D02*
X015267Y002875D01*
X015267Y002716D02*
X014850Y002716D01*
X014315Y002716D02*
X014199Y002716D01*
X014199Y002875D02*
X014315Y002875D01*
X014315Y003033D02*
X014199Y003033D01*
X014199Y002399D02*
X014315Y002399D01*
X014315Y002241D02*
X014199Y002241D01*
X014199Y002082D02*
X014315Y002082D01*
X013694Y002082D02*
X013240Y002082D01*
X013247Y002241D02*
X013663Y002241D01*
X013663Y002399D02*
X013247Y002399D01*
D18*
X010055Y007680D03*
X008055Y008180D03*
X010805Y011055D03*
D19*
X010783Y011033D01*
X010119Y011033D01*
X009371Y011033D02*
X008203Y011033D01*
X007930Y011305D01*
X007930Y012930D01*
X007390Y009680D02*
X006805Y009680D01*
X006680Y009555D01*
X006680Y007805D01*
X006805Y007680D01*
X007390Y007680D01*
X007390Y007180D02*
X010305Y007180D01*
X010430Y007305D01*
X010430Y008680D01*
X009554Y008680D01*
X008806Y008680D02*
X008806Y008180D01*
X008055Y008180D01*
X007390Y008180D01*
X007390Y008680D02*
X007930Y008680D01*
X008430Y009180D01*
X010305Y009180D01*
X010430Y009055D01*
X010430Y008680D01*
X008806Y008180D02*
X008806Y007680D01*
X007390Y007180D02*
X004970Y007180D01*
X004970Y001890D01*
X005430Y001430D01*
X007430Y001430D01*
X007643Y001643D01*
X007643Y002597D01*
X015910Y004763D02*
X015930Y004782D01*
X015930Y006555D01*
X013055Y009430D01*
X008305Y009430D01*
X008055Y009180D01*
X007390Y009180D01*
D20*
X013430Y012430D02*
X013430Y012930D01*
X013430Y012430D02*
X019930Y005930D01*
X020871Y005055D01*
X020871Y004763D01*
X020871Y002597D01*
X019217Y002597D01*
X015910Y002597D02*
X015910Y001430D01*
X025680Y001430D01*
X025680Y006930D01*
X020930Y006930D01*
X015368Y012493D01*
X015368Y012930D01*
X019243Y012930D02*
X019243Y010368D01*
X021430Y008180D01*
X022805Y008180D01*
X022805Y009180D02*
X022055Y009180D01*
X021180Y010055D01*
X021180Y012930D01*
X012603Y002597D02*
X012603Y001430D01*
X015910Y001430D01*
D21*
X028704Y009183D03*
M02*
