%
M48
M72
T01C0.0150
T02C0.0394
T03C0.0440
T04C0.0551
T05C0.1000
T06C0.1102
T07C0.1181
T08C0.1300
%
T01
X10055Y7680
X8055Y8180
X10805Y11055
T02
X8930Y12930
X7930Y12930
X6430Y12930
X5430Y12930
T03
X22805Y10180
X22805Y9180
X22805Y8180
T04
X20871Y4763
X19217Y4763
X17564Y4763
X15910Y4763
X14257Y4763
X12603Y4763
X10950Y4763
X9296Y4763
X7643Y4763
X5989Y4763
X5989Y2597
X7643Y2597
X9296Y2597
X10950Y2597
X12603Y2597
X14257Y2597
X15910Y2597
X17564Y2597
X19217Y2597
X20871Y2597
T05
X21180Y12930
X19243Y12930
X17305Y12930
X15368Y12930
X13430Y12930
X11493Y12930
T06
X2430Y2430
X2430Y12930
X28680Y12930
X28680Y2430
T07
X22721Y4582
X4139Y4582
T08
X28704Y9183
X28705Y9180
M30
