G75*
%MOIN*%
%OFA0B0*%
%FSLAX24Y24*%
%IPPOS*%
%LPD*%
%AMOC8*
5,1,8,0,0,1.08239X$1,22.5*
%
%ADD10C,0.0660*%
%ADD11C,0.1400*%
%ADD12R,0.0827X0.0827*%
%ADD13C,0.0660*%
%ADD14C,0.0160*%
%ADD15C,0.0310*%
%ADD16C,0.0400*%
%ADD17C,0.0100*%
%ADD18C,0.2540*%
D10*
X022475Y008180D02*
X023135Y008180D01*
X023135Y009180D02*
X022475Y009180D01*
X022475Y010180D02*
X023135Y010180D01*
D11*
X021180Y012930D03*
X019243Y012930D03*
X017305Y012930D03*
X015368Y012930D03*
X013430Y012930D03*
X011493Y012930D03*
D12*
X010950Y004763D03*
X012603Y004763D03*
X014257Y004763D03*
X015910Y004763D03*
X017564Y004763D03*
X019217Y004763D03*
X020871Y004763D03*
X020871Y002597D03*
X019217Y002597D03*
X017564Y002597D03*
X015910Y002597D03*
X014257Y002597D03*
X012603Y002597D03*
X010950Y002597D03*
X009296Y002597D03*
X007643Y002597D03*
X005989Y002597D03*
X005989Y004763D03*
X007643Y004763D03*
X009296Y004763D03*
D13*
X008930Y012930D03*
X007930Y012930D03*
X006430Y012930D03*
X005430Y012930D03*
D14*
X000660Y014570D02*
X000660Y000660D01*
X026555Y000660D01*
X026555Y014570D01*
X000660Y014570D01*
X000660Y014445D02*
X001878Y014445D01*
X002067Y014519D02*
X001615Y014342D01*
X001235Y014039D01*
X001235Y014039D01*
X001235Y014039D01*
X000961Y013637D01*
X000818Y013173D01*
X000818Y012687D01*
X000961Y012223D01*
X000961Y012223D01*
X001235Y011821D01*
X001615Y011518D01*
X002067Y011341D01*
X002067Y011341D01*
X002552Y011305D01*
X003026Y011413D01*
X003446Y011656D01*
X003777Y012012D01*
X003988Y012450D01*
X004060Y012930D01*
X003988Y013410D01*
X003777Y013848D01*
X003777Y013848D01*
X003446Y014204D01*
X003026Y014447D01*
X002552Y014555D01*
X002552Y014555D01*
X002067Y014519D01*
X002067Y014519D01*
X001615Y014342D02*
X001615Y014342D01*
X001546Y014287D02*
X000660Y014287D01*
X000660Y014128D02*
X001347Y014128D01*
X001188Y013970D02*
X000660Y013970D01*
X000660Y013811D02*
X001080Y013811D01*
X000972Y013653D02*
X000660Y013653D01*
X000660Y013494D02*
X000917Y013494D01*
X000961Y013637D02*
X000961Y013637D01*
X000868Y013336D02*
X000660Y013336D01*
X000660Y013177D02*
X000819Y013177D01*
X000818Y013019D02*
X000660Y013019D01*
X000660Y012860D02*
X000818Y012860D01*
X000818Y012702D02*
X000660Y012702D01*
X000660Y012543D02*
X000863Y012543D01*
X000912Y012385D02*
X000660Y012385D01*
X000660Y012226D02*
X000960Y012226D01*
X001067Y012068D02*
X000660Y012068D01*
X000660Y011909D02*
X001175Y011909D01*
X001235Y011821D02*
X001235Y011821D01*
X001235Y011821D01*
X001324Y011751D02*
X000660Y011751D01*
X000660Y011592D02*
X001523Y011592D01*
X001615Y011518D02*
X001615Y011518D01*
X001831Y011434D02*
X000660Y011434D01*
X000660Y011275D02*
X005150Y011275D01*
X005150Y011434D02*
X003062Y011434D01*
X003026Y011413D02*
X003026Y011413D01*
X002552Y011305D02*
X002552Y011305D01*
X003336Y011592D02*
X005150Y011592D01*
X005150Y011751D02*
X003534Y011751D01*
X003446Y011656D02*
X003446Y011656D01*
X003681Y011909D02*
X005150Y011909D01*
X005150Y012068D02*
X003804Y012068D01*
X003777Y012012D02*
X003777Y012012D01*
X003880Y012226D02*
X005150Y012226D01*
X005150Y012385D02*
X003956Y012385D01*
X003988Y012450D02*
X003988Y012450D01*
X004002Y012543D02*
X005025Y012543D01*
X004955Y012613D02*
X005113Y012455D01*
X005150Y012440D01*
X005150Y008249D01*
X005193Y008146D01*
X005318Y008021D01*
X005396Y007943D01*
X005499Y007900D01*
X007791Y007900D01*
X007837Y007854D01*
X007978Y007795D01*
X008132Y007795D01*
X008273Y007854D01*
X008381Y007962D01*
X008440Y008103D01*
X008440Y008257D01*
X008381Y008398D01*
X008273Y008506D01*
X008132Y008565D01*
X007978Y008565D01*
X007837Y008506D01*
X007791Y008460D01*
X005710Y008460D01*
X005710Y012440D01*
X005747Y012455D01*
X005905Y012613D01*
X005956Y012737D01*
X005957Y012734D01*
X005994Y012663D01*
X006041Y012598D01*
X006098Y012541D01*
X006163Y012494D01*
X006234Y012457D01*
X006311Y012433D01*
X006390Y012420D01*
X006412Y012420D01*
X006412Y012912D01*
X006448Y012912D01*
X006448Y012948D01*
X006412Y012948D01*
X006412Y013440D01*
X006390Y013440D01*
X006311Y013427D01*
X006234Y013403D01*
X006163Y013366D01*
X006098Y013319D01*
X006041Y013262D01*
X005994Y013197D01*
X005957Y013126D01*
X005956Y013123D01*
X005905Y013247D01*
X005747Y013405D01*
X005541Y013490D01*
X005319Y013490D01*
X005113Y013405D01*
X004955Y013247D01*
X004870Y013041D01*
X004870Y012819D01*
X004955Y012613D01*
X004918Y012702D02*
X004026Y012702D01*
X004049Y012860D02*
X004870Y012860D01*
X004870Y013019D02*
X004047Y013019D01*
X004023Y013177D02*
X004926Y013177D01*
X005044Y013336D02*
X003999Y013336D01*
X003988Y013410D02*
X003988Y013410D01*
X003947Y013494D02*
X010816Y013494D01*
X010829Y013511D02*
X010759Y013420D01*
X010702Y013320D01*
X010657Y013213D01*
X010628Y013102D01*
X010615Y013010D01*
X011412Y013010D01*
X011412Y012850D01*
X010615Y012850D01*
X010628Y012758D01*
X010657Y012647D01*
X010702Y012540D01*
X010759Y012440D01*
X010829Y012349D01*
X010911Y012267D01*
X011003Y012197D01*
X011102Y012139D01*
X011209Y012095D01*
X011320Y012065D01*
X011413Y012053D01*
X011413Y012850D01*
X011572Y012850D01*
X011572Y012053D01*
X011665Y012065D01*
X011776Y012095D01*
X011883Y012139D01*
X011982Y012197D01*
X012074Y012267D01*
X012156Y012349D01*
X012226Y012440D01*
X012283Y012540D01*
X012328Y012647D01*
X012357Y012758D01*
X012370Y012850D01*
X011573Y012850D01*
X011573Y013010D01*
X012370Y013010D01*
X012357Y013102D01*
X012328Y013213D01*
X012283Y013320D01*
X012226Y013420D01*
X012156Y013511D01*
X012074Y013593D01*
X011982Y013663D01*
X011883Y013721D01*
X011776Y013765D01*
X011665Y013795D01*
X011572Y013807D01*
X011572Y013010D01*
X011413Y013010D01*
X011413Y013807D01*
X011320Y013795D01*
X011209Y013765D01*
X011102Y013721D01*
X011003Y013663D01*
X010911Y013593D01*
X010829Y013511D01*
X010710Y013336D02*
X009240Y013336D01*
X009262Y013319D02*
X009197Y013366D01*
X009126Y013403D01*
X009049Y013427D01*
X008970Y013440D01*
X008948Y013440D01*
X008948Y012948D01*
X008912Y012948D01*
X008912Y013440D01*
X008890Y013440D01*
X008811Y013427D01*
X008734Y013403D01*
X008663Y013366D01*
X008598Y013319D01*
X008541Y013262D01*
X008494Y013197D01*
X008457Y013126D01*
X008456Y013123D01*
X008405Y013247D01*
X008247Y013405D01*
X008041Y013490D01*
X007819Y013490D01*
X007613Y013405D01*
X007455Y013247D01*
X007370Y013041D01*
X007370Y012819D01*
X007455Y012613D01*
X007613Y012455D01*
X007819Y012370D01*
X008041Y012370D01*
X008247Y012455D01*
X008405Y012613D01*
X008456Y012737D01*
X008457Y012734D01*
X008494Y012663D01*
X008541Y012598D01*
X008598Y012541D01*
X008663Y012494D01*
X008734Y012457D01*
X008811Y012433D01*
X008890Y012420D01*
X008912Y012420D01*
X008912Y012912D01*
X008948Y012912D01*
X008948Y012948D01*
X009440Y012948D01*
X009440Y012970D01*
X009427Y013049D01*
X009403Y013126D01*
X009366Y013197D01*
X009319Y013262D01*
X009262Y013319D01*
X009377Y013177D02*
X010648Y013177D01*
X010617Y013019D02*
X009432Y013019D01*
X009440Y012912D02*
X008948Y012912D01*
X008948Y012420D01*
X008970Y012420D01*
X009049Y012433D01*
X009126Y012457D01*
X009197Y012494D01*
X009262Y012541D01*
X009319Y012598D01*
X009366Y012663D01*
X009403Y012734D01*
X009427Y012811D01*
X009440Y012890D01*
X009440Y012912D01*
X009435Y012860D02*
X011412Y012860D01*
X011413Y012702D02*
X011572Y012702D01*
X011573Y012860D02*
X012500Y012860D01*
X012500Y012745D02*
X012642Y012403D01*
X012903Y012142D01*
X013245Y012000D01*
X013615Y012000D01*
X013957Y012142D01*
X014218Y012403D01*
X014360Y012745D01*
X014360Y013115D01*
X014218Y013457D01*
X013957Y013718D01*
X013615Y013860D01*
X013245Y013860D01*
X012903Y013718D01*
X012642Y013457D01*
X012500Y013115D01*
X012500Y012745D01*
X012518Y012702D02*
X012342Y012702D01*
X012285Y012543D02*
X012584Y012543D01*
X012660Y012385D02*
X012183Y012385D01*
X012021Y012226D02*
X012819Y012226D01*
X013082Y012068D02*
X011674Y012068D01*
X011572Y012068D02*
X011413Y012068D01*
X011311Y012068D02*
X005710Y012068D01*
X005710Y012226D02*
X010964Y012226D01*
X010802Y012385D02*
X008076Y012385D01*
X007784Y012385D02*
X005710Y012385D01*
X005835Y012543D02*
X006096Y012543D01*
X005974Y012702D02*
X005941Y012702D01*
X006412Y012702D02*
X006448Y012702D01*
X006448Y012860D02*
X006412Y012860D01*
X006448Y012912D02*
X006448Y012420D01*
X006470Y012420D01*
X006549Y012433D01*
X006626Y012457D01*
X006697Y012494D01*
X006762Y012541D01*
X006819Y012598D01*
X006866Y012663D01*
X006903Y012734D01*
X006927Y012811D01*
X006940Y012890D01*
X006940Y012912D01*
X006448Y012912D01*
X006448Y012948D02*
X006940Y012948D01*
X006940Y012970D01*
X006927Y013049D01*
X006903Y013126D01*
X006866Y013197D01*
X006819Y013262D01*
X006762Y013319D01*
X006697Y013366D01*
X006626Y013403D01*
X006549Y013427D01*
X006470Y013440D01*
X006448Y013440D01*
X006448Y012948D01*
X006448Y013019D02*
X006412Y013019D01*
X006412Y013177D02*
X006448Y013177D01*
X006448Y013336D02*
X006412Y013336D01*
X006120Y013336D02*
X005816Y013336D01*
X005934Y013177D02*
X005983Y013177D01*
X006740Y013336D02*
X007544Y013336D01*
X007426Y013177D02*
X006877Y013177D01*
X006932Y013019D02*
X007370Y013019D01*
X007370Y012860D02*
X006935Y012860D01*
X006886Y012702D02*
X007418Y012702D01*
X007525Y012543D02*
X006764Y012543D01*
X006448Y012543D02*
X006412Y012543D01*
X005710Y011909D02*
X014938Y011909D01*
X014938Y011751D02*
X005710Y011751D01*
X005710Y011592D02*
X014938Y011592D01*
X014938Y011434D02*
X010897Y011434D01*
X010882Y011440D02*
X011023Y011381D01*
X011069Y011335D01*
X014938Y011335D01*
X014938Y012101D01*
X014841Y012142D01*
X014579Y012403D01*
X014438Y012745D01*
X014438Y013115D01*
X014579Y013457D01*
X014841Y013718D01*
X015183Y013860D01*
X015552Y013860D01*
X015894Y013718D01*
X016156Y013457D01*
X016297Y013115D01*
X016297Y012745D01*
X016156Y012403D01*
X015894Y012142D01*
X015797Y012101D01*
X015797Y005844D01*
X015732Y005686D01*
X015611Y005565D01*
X015453Y005500D01*
X008110Y005500D01*
X008110Y005406D01*
X008151Y005406D01*
X008286Y005271D01*
X008286Y004254D01*
X008151Y004119D01*
X007134Y004119D01*
X006999Y004254D01*
X006999Y005271D01*
X007134Y005406D01*
X007250Y005406D01*
X007250Y005500D01*
X006419Y005500D01*
X006419Y005406D01*
X006498Y005406D01*
X006632Y005271D01*
X006632Y004254D01*
X006498Y004119D01*
X005480Y004119D01*
X005346Y004254D01*
X005346Y005271D01*
X005480Y005406D01*
X005559Y005406D01*
X005559Y006016D01*
X005625Y006174D01*
X005745Y006295D01*
X005904Y006360D01*
X014938Y006360D01*
X014938Y010775D01*
X011069Y010775D01*
X011023Y010729D01*
X010882Y010670D01*
X010728Y010670D01*
X010587Y010729D01*
X010479Y010837D01*
X010420Y010978D01*
X010420Y011132D01*
X010479Y011273D01*
X010587Y011381D01*
X010728Y011440D01*
X010882Y011440D01*
X010713Y011434D02*
X005710Y011434D01*
X005710Y011275D02*
X010481Y011275D01*
X010420Y011117D02*
X005710Y011117D01*
X005710Y010958D02*
X010428Y010958D01*
X010516Y010800D02*
X005710Y010800D01*
X005710Y010641D02*
X014938Y010641D01*
X014938Y010483D02*
X005710Y010483D01*
X005710Y010324D02*
X014938Y010324D01*
X014938Y010166D02*
X005710Y010166D01*
X005710Y010007D02*
X014938Y010007D01*
X014938Y009849D02*
X005710Y009849D01*
X005710Y009690D02*
X014938Y009690D01*
X014938Y009532D02*
X005710Y009532D01*
X005710Y009373D02*
X014938Y009373D01*
X014938Y009215D02*
X005710Y009215D01*
X005710Y009056D02*
X014938Y009056D01*
X014938Y008898D02*
X005710Y008898D01*
X005710Y008739D02*
X014938Y008739D01*
X014938Y008581D02*
X005710Y008581D01*
X005150Y008581D02*
X000660Y008581D01*
X000660Y008739D02*
X005150Y008739D01*
X005150Y008898D02*
X000660Y008898D01*
X000660Y009056D02*
X005150Y009056D01*
X005150Y009215D02*
X000660Y009215D01*
X000660Y009373D02*
X005150Y009373D01*
X005150Y009532D02*
X000660Y009532D01*
X000660Y009690D02*
X005150Y009690D01*
X005150Y009849D02*
X000660Y009849D01*
X000660Y010007D02*
X005150Y010007D01*
X005150Y010166D02*
X000660Y010166D01*
X000660Y010324D02*
X005150Y010324D01*
X005150Y010483D02*
X000660Y010483D01*
X000660Y010641D02*
X005150Y010641D01*
X005150Y010800D02*
X000660Y010800D01*
X000660Y010958D02*
X005150Y010958D01*
X005150Y011117D02*
X000660Y011117D01*
X000660Y008422D02*
X005150Y008422D01*
X005150Y008264D02*
X000660Y008264D01*
X000660Y008105D02*
X005234Y008105D01*
X005393Y007947D02*
X000660Y007947D01*
X000660Y007788D02*
X014938Y007788D01*
X014938Y007630D02*
X000660Y007630D01*
X000660Y007471D02*
X014938Y007471D01*
X014938Y007313D02*
X000660Y007313D01*
X000660Y007154D02*
X014938Y007154D01*
X014938Y006996D02*
X000660Y006996D01*
X000660Y006837D02*
X014938Y006837D01*
X014938Y006679D02*
X000660Y006679D01*
X000660Y006520D02*
X014938Y006520D01*
X014938Y006362D02*
X000660Y006362D01*
X000660Y006203D02*
X005654Y006203D01*
X005571Y006045D02*
X000660Y006045D01*
X000660Y005886D02*
X005559Y005886D01*
X005559Y005728D02*
X000660Y005728D01*
X000660Y005569D02*
X003708Y005569D01*
X003725Y005579D02*
X003481Y005438D01*
X003282Y005239D01*
X003141Y004995D01*
X003068Y004723D01*
X003068Y004441D01*
X003141Y004168D01*
X003282Y003924D01*
X003481Y003725D01*
X003725Y003584D01*
X003998Y003511D01*
X004280Y003511D01*
X004552Y003584D01*
X004796Y003725D01*
X004995Y003924D01*
X005136Y004168D01*
X005209Y004441D01*
X005209Y004723D01*
X005136Y004995D01*
X004995Y005239D01*
X004796Y005438D01*
X004552Y005579D01*
X004280Y005652D01*
X003998Y005652D01*
X003725Y005579D01*
X003454Y005411D02*
X000660Y005411D01*
X000660Y005252D02*
X003295Y005252D01*
X003198Y005094D02*
X000660Y005094D01*
X000660Y004935D02*
X003125Y004935D01*
X003083Y004777D02*
X000660Y004777D01*
X000660Y004618D02*
X003068Y004618D01*
X003068Y004460D02*
X000660Y004460D01*
X000660Y004301D02*
X003106Y004301D01*
X003156Y004143D02*
X000660Y004143D01*
X000660Y003984D02*
X001978Y003984D01*
X002067Y004019D02*
X001615Y003842D01*
X001235Y003539D01*
X001235Y003539D01*
X001235Y003539D01*
X000961Y003137D01*
X000818Y002673D01*
X000818Y002187D01*
X000961Y001723D01*
X000961Y001723D01*
X001235Y001321D01*
X001615Y001018D01*
X002067Y000841D01*
X002067Y000841D01*
X002552Y000805D01*
X003026Y000913D01*
X003446Y001156D01*
X003777Y001512D01*
X003988Y001950D01*
X004060Y002430D01*
X003988Y002910D01*
X003777Y003348D01*
X003777Y003348D01*
X003446Y003704D01*
X003026Y003947D01*
X003026Y003947D01*
X002552Y004055D01*
X002067Y004019D01*
X002067Y004019D01*
X001615Y003842D02*
X001615Y003842D01*
X001595Y003826D02*
X000660Y003826D01*
X000660Y003667D02*
X001396Y003667D01*
X001215Y003509D02*
X000660Y003509D01*
X000660Y003350D02*
X001106Y003350D01*
X000998Y003192D02*
X000660Y003192D01*
X000660Y003033D02*
X000929Y003033D01*
X000961Y003137D02*
X000961Y003137D01*
X000880Y002875D02*
X000660Y002875D01*
X000660Y002716D02*
X000831Y002716D01*
X000818Y002558D02*
X000660Y002558D01*
X000660Y002399D02*
X000818Y002399D01*
X000818Y002241D02*
X000660Y002241D01*
X000660Y002082D02*
X000851Y002082D01*
X000900Y001924D02*
X000660Y001924D01*
X000660Y001765D02*
X000948Y001765D01*
X001041Y001607D02*
X000660Y001607D01*
X000660Y001448D02*
X001149Y001448D01*
X001235Y001321D02*
X001235Y001321D01*
X001235Y001321D01*
X001275Y001290D02*
X000660Y001290D01*
X000660Y001131D02*
X001474Y001131D01*
X001615Y001018D02*
X001615Y001018D01*
X001732Y000973D02*
X000660Y000973D01*
X000660Y000814D02*
X002426Y000814D01*
X002552Y000805D02*
X002552Y000805D01*
X002593Y000814D02*
X026555Y000814D01*
X026555Y000973D02*
X003129Y000973D01*
X003026Y000913D02*
X003026Y000913D01*
X003404Y001131D02*
X005680Y001131D01*
X005625Y001186D02*
X005745Y001065D01*
X005904Y001000D01*
X025766Y001000D01*
X025924Y001065D01*
X026045Y001186D01*
X026110Y001344D01*
X026110Y011516D01*
X026045Y011674D01*
X025924Y011795D01*
X025766Y011860D01*
X018358Y011860D01*
X017954Y012264D01*
X018093Y012403D01*
X018235Y012745D01*
X018235Y013115D01*
X018093Y013457D01*
X017832Y013718D01*
X017490Y013860D01*
X017120Y013860D01*
X016778Y013718D01*
X016517Y013457D01*
X016375Y013115D01*
X016375Y012745D01*
X016517Y012403D01*
X016778Y012142D01*
X016934Y012077D01*
X016940Y012061D01*
X017061Y011940D01*
X017936Y011065D01*
X018094Y011000D01*
X025250Y011000D01*
X025250Y001860D01*
X006419Y001860D01*
X006419Y001954D01*
X006498Y001954D01*
X006632Y002089D01*
X006632Y003106D01*
X006498Y003241D01*
X005480Y003241D01*
X005346Y003106D01*
X005346Y002089D01*
X005480Y001954D01*
X005559Y001954D01*
X005559Y001344D01*
X005625Y001186D01*
X005582Y001290D02*
X003571Y001290D01*
X003446Y001156D02*
X003446Y001156D01*
X003446Y001156D01*
X003718Y001448D02*
X005559Y001448D01*
X005559Y001607D02*
X003822Y001607D01*
X003777Y001512D02*
X003777Y001512D01*
X003899Y001765D02*
X005559Y001765D01*
X005559Y001924D02*
X003975Y001924D01*
X003988Y001950D02*
X003988Y001950D01*
X004008Y002082D02*
X005352Y002082D01*
X005346Y002241D02*
X004031Y002241D01*
X004055Y002399D02*
X005346Y002399D01*
X005346Y002558D02*
X004041Y002558D01*
X004017Y002716D02*
X005346Y002716D01*
X005346Y002875D02*
X003993Y002875D01*
X003988Y002910D02*
X003988Y002910D01*
X003929Y003033D02*
X005346Y003033D01*
X005431Y003192D02*
X003852Y003192D01*
X003775Y003350D02*
X025250Y003350D01*
X025250Y003192D02*
X021429Y003192D01*
X021380Y003241D02*
X020362Y003241D01*
X020228Y003106D01*
X020228Y002089D01*
X020362Y001954D01*
X021380Y001954D01*
X021514Y002089D01*
X021514Y003106D01*
X021380Y003241D01*
X021514Y003033D02*
X025250Y003033D01*
X025250Y002875D02*
X021514Y002875D01*
X021514Y002716D02*
X025250Y002716D01*
X025250Y002558D02*
X021514Y002558D01*
X021514Y002399D02*
X025250Y002399D01*
X025250Y002241D02*
X021514Y002241D01*
X021508Y002082D02*
X025250Y002082D01*
X025250Y001924D02*
X006419Y001924D01*
X006626Y002082D02*
X007006Y002082D01*
X006999Y002089D02*
X007134Y001954D01*
X008151Y001954D01*
X008286Y002089D01*
X008286Y003106D01*
X008151Y003241D01*
X007134Y003241D01*
X006999Y003106D01*
X006999Y002089D01*
X006999Y002241D02*
X006632Y002241D01*
X006632Y002399D02*
X006999Y002399D01*
X006999Y002558D02*
X006632Y002558D01*
X006632Y002716D02*
X006999Y002716D01*
X006999Y002875D02*
X006632Y002875D01*
X006632Y003033D02*
X006999Y003033D01*
X007085Y003192D02*
X006547Y003192D01*
X008200Y003192D02*
X008738Y003192D01*
X008787Y003241D02*
X008653Y003106D01*
X008653Y002089D01*
X008787Y001954D01*
X009805Y001954D01*
X009940Y002089D01*
X009940Y003106D01*
X009805Y003241D01*
X008787Y003241D01*
X008653Y003033D02*
X008286Y003033D01*
X008286Y002875D02*
X008653Y002875D01*
X008653Y002716D02*
X008286Y002716D01*
X008286Y002558D02*
X008653Y002558D01*
X008653Y002399D02*
X008286Y002399D01*
X008286Y002241D02*
X008653Y002241D01*
X008659Y002082D02*
X008279Y002082D01*
X009933Y002082D02*
X010387Y002082D01*
X010392Y002073D02*
X010426Y002040D01*
X010467Y002016D01*
X010513Y002004D01*
X010892Y002004D01*
X010892Y002540D01*
X010356Y002540D01*
X010356Y002160D01*
X010369Y002114D01*
X010392Y002073D01*
X010356Y002241D02*
X009940Y002241D01*
X009940Y002399D02*
X010356Y002399D01*
X010356Y002655D02*
X010892Y002655D01*
X010892Y002540D01*
X011007Y002540D01*
X011007Y002004D01*
X011387Y002004D01*
X011433Y002016D01*
X011474Y002040D01*
X011507Y002073D01*
X011531Y002114D01*
X011543Y002160D01*
X011543Y002540D01*
X011007Y002540D01*
X011007Y002655D01*
X010892Y002655D01*
X010892Y003191D01*
X010513Y003191D01*
X010467Y003178D01*
X010426Y003155D01*
X010392Y003121D01*
X010369Y003080D01*
X010356Y003034D01*
X010356Y002655D01*
X010356Y002716D02*
X009940Y002716D01*
X009940Y002558D02*
X010892Y002558D01*
X011007Y002558D02*
X011960Y002558D01*
X011960Y002716D02*
X011543Y002716D01*
X011543Y002655D02*
X011543Y003034D01*
X011531Y003080D01*
X011507Y003121D01*
X011474Y003155D01*
X011433Y003178D01*
X011387Y003191D01*
X011007Y003191D01*
X011007Y002655D01*
X011543Y002655D01*
X011543Y002875D02*
X011960Y002875D01*
X011960Y003033D02*
X011543Y003033D01*
X011960Y003106D02*
X011960Y002089D01*
X012095Y001954D01*
X013112Y001954D01*
X013247Y002089D01*
X013247Y003106D01*
X013112Y003241D01*
X012095Y003241D01*
X011960Y003106D01*
X012045Y003192D02*
X009854Y003192D01*
X009940Y003033D02*
X010356Y003033D01*
X010356Y002875D02*
X009940Y002875D01*
X010892Y002875D02*
X011007Y002875D01*
X011007Y003033D02*
X010892Y003033D01*
X010892Y002716D02*
X011007Y002716D01*
X011007Y002399D02*
X010892Y002399D01*
X010892Y002241D02*
X011007Y002241D01*
X011007Y002082D02*
X010892Y002082D01*
X011512Y002082D02*
X011967Y002082D01*
X011960Y002241D02*
X011543Y002241D01*
X011543Y002399D02*
X011960Y002399D01*
X013247Y002399D02*
X013663Y002399D01*
X013663Y002540D02*
X013663Y002160D01*
X013676Y002114D01*
X013699Y002073D01*
X013733Y002040D01*
X013774Y002016D01*
X013820Y002004D01*
X014199Y002004D01*
X014199Y002540D01*
X013663Y002540D01*
X013663Y002655D02*
X014199Y002655D01*
X014199Y002540D01*
X014315Y002540D01*
X014315Y002655D01*
X014850Y002655D01*
X014850Y003034D01*
X014838Y003080D01*
X014814Y003121D01*
X014781Y003155D01*
X014740Y003178D01*
X014694Y003191D01*
X014315Y003191D01*
X014315Y002655D01*
X014199Y002655D01*
X014199Y003191D01*
X013820Y003191D01*
X013774Y003178D01*
X013733Y003155D01*
X013699Y003121D01*
X013676Y003080D01*
X013663Y003034D01*
X013663Y002655D01*
X013663Y002716D02*
X013247Y002716D01*
X013247Y002558D02*
X014199Y002558D01*
X014315Y002558D02*
X015267Y002558D01*
X015267Y002716D02*
X014850Y002716D01*
X014850Y002875D02*
X015267Y002875D01*
X015267Y003033D02*
X014850Y003033D01*
X014315Y003033D02*
X014199Y003033D01*
X014199Y002875D02*
X014315Y002875D01*
X014315Y002716D02*
X014199Y002716D01*
X014315Y002540D02*
X014850Y002540D01*
X014850Y002160D01*
X014838Y002114D01*
X014814Y002073D01*
X014781Y002040D01*
X014740Y002016D01*
X014694Y002004D01*
X014315Y002004D01*
X014315Y002540D01*
X014315Y002399D02*
X014199Y002399D01*
X014199Y002241D02*
X014315Y002241D01*
X014315Y002082D02*
X014199Y002082D01*
X013694Y002082D02*
X013240Y002082D01*
X013247Y002241D02*
X013663Y002241D01*
X013663Y002875D02*
X013247Y002875D01*
X013247Y003033D02*
X013663Y003033D01*
X013161Y003192D02*
X015352Y003192D01*
X015402Y003241D02*
X015267Y003106D01*
X015267Y002089D01*
X015402Y001954D01*
X016419Y001954D01*
X016554Y002089D01*
X016554Y003106D01*
X016419Y003241D01*
X015402Y003241D01*
X016468Y003192D02*
X018660Y003192D01*
X018709Y003241D02*
X018574Y003106D01*
X018574Y002089D01*
X018709Y001954D01*
X019726Y001954D01*
X019861Y002089D01*
X019861Y003106D01*
X019726Y003241D01*
X018709Y003241D01*
X018574Y003033D02*
X018157Y003033D01*
X018157Y003034D02*
X018145Y003080D01*
X018121Y003121D01*
X018088Y003155D01*
X018047Y003178D01*
X018001Y003191D01*
X017622Y003191D01*
X017622Y002655D01*
X018157Y002655D01*
X018157Y003034D01*
X018157Y002875D02*
X018574Y002875D01*
X018574Y002716D02*
X018157Y002716D01*
X018157Y002540D02*
X017622Y002540D01*
X017622Y002655D01*
X017506Y002655D01*
X017506Y002540D01*
X016970Y002540D01*
X016970Y002160D01*
X016983Y002114D01*
X017006Y002073D01*
X017040Y002040D01*
X017081Y002016D01*
X017127Y002004D01*
X017506Y002004D01*
X017506Y002540D01*
X017622Y002540D01*
X017622Y002004D01*
X018001Y002004D01*
X018047Y002016D01*
X018088Y002040D01*
X018121Y002073D01*
X018145Y002114D01*
X018157Y002160D01*
X018157Y002540D01*
X018157Y002399D02*
X018574Y002399D01*
X018574Y002241D02*
X018157Y002241D01*
X018126Y002082D02*
X018581Y002082D01*
X018574Y002558D02*
X017622Y002558D01*
X017506Y002558D02*
X016554Y002558D01*
X016554Y002716D02*
X016970Y002716D01*
X016970Y002655D02*
X017506Y002655D01*
X017506Y003191D01*
X017127Y003191D01*
X017081Y003178D01*
X017040Y003155D01*
X017006Y003121D01*
X016983Y003080D01*
X016970Y003034D01*
X016970Y002655D01*
X016970Y002875D02*
X016554Y002875D01*
X016554Y003033D02*
X016970Y003033D01*
X017506Y003033D02*
X017622Y003033D01*
X017622Y002875D02*
X017506Y002875D01*
X017506Y002716D02*
X017622Y002716D01*
X017622Y002399D02*
X017506Y002399D01*
X017506Y002241D02*
X017622Y002241D01*
X017622Y002082D02*
X017506Y002082D01*
X017001Y002082D02*
X016547Y002082D01*
X016554Y002241D02*
X016970Y002241D01*
X016970Y002399D02*
X016554Y002399D01*
X015267Y002399D02*
X014850Y002399D01*
X014850Y002241D02*
X015267Y002241D01*
X015274Y002082D02*
X014819Y002082D01*
X014694Y004169D02*
X014315Y004169D01*
X014315Y004705D01*
X014315Y004820D01*
X014850Y004820D01*
X014850Y005200D01*
X014838Y005246D01*
X014814Y005287D01*
X014781Y005320D01*
X014740Y005344D01*
X014694Y005356D01*
X014315Y005356D01*
X014315Y004820D01*
X014199Y004820D01*
X014199Y004705D01*
X013663Y004705D01*
X013663Y004326D01*
X013676Y004280D01*
X013699Y004239D01*
X013733Y004205D01*
X013774Y004182D01*
X013820Y004169D01*
X014199Y004169D01*
X014199Y004705D01*
X014315Y004705D01*
X014850Y004705D01*
X014850Y004326D01*
X014838Y004280D01*
X014814Y004239D01*
X014781Y004205D01*
X014740Y004182D01*
X014694Y004169D01*
X014844Y004301D02*
X015267Y004301D01*
X015267Y004254D02*
X015402Y004119D01*
X016419Y004119D01*
X016554Y004254D01*
X016554Y005271D01*
X016419Y005406D01*
X015402Y005406D01*
X015267Y005271D01*
X015267Y004254D01*
X015378Y004143D02*
X009828Y004143D01*
X009805Y004119D02*
X009940Y004254D01*
X009940Y005271D01*
X009805Y005406D01*
X008787Y005406D01*
X008653Y005271D01*
X008653Y004254D01*
X008787Y004119D01*
X009805Y004119D01*
X009940Y004301D02*
X010363Y004301D01*
X010369Y004280D02*
X010392Y004239D01*
X010426Y004205D01*
X010467Y004182D01*
X010513Y004169D01*
X010892Y004169D01*
X010892Y004705D01*
X010356Y004705D01*
X010356Y004326D01*
X010369Y004280D01*
X010356Y004460D02*
X009940Y004460D01*
X009940Y004618D02*
X010356Y004618D01*
X010356Y004820D02*
X010892Y004820D01*
X010892Y004705D01*
X011007Y004705D01*
X011007Y004169D01*
X011387Y004169D01*
X011433Y004182D01*
X011474Y004205D01*
X011507Y004239D01*
X011531Y004280D01*
X011543Y004326D01*
X011543Y004705D01*
X011007Y004705D01*
X011007Y004820D01*
X011543Y004820D01*
X011543Y005200D01*
X011531Y005246D01*
X011507Y005287D01*
X011474Y005320D01*
X011433Y005344D01*
X011387Y005356D01*
X011007Y005356D01*
X011007Y004820D01*
X010892Y004820D01*
X010892Y005356D01*
X010513Y005356D01*
X010467Y005344D01*
X010426Y005320D01*
X010392Y005287D01*
X010369Y005246D01*
X010356Y005200D01*
X010356Y004820D01*
X010356Y004935D02*
X009940Y004935D01*
X009940Y004777D02*
X010892Y004777D01*
X011007Y004777D02*
X012545Y004777D01*
X012545Y004820D02*
X012545Y004705D01*
X012010Y004705D01*
X012010Y004326D01*
X012022Y004280D01*
X012046Y004239D01*
X012079Y004205D01*
X012120Y004182D01*
X012166Y004169D01*
X012545Y004169D01*
X012545Y004705D01*
X012661Y004705D01*
X012661Y004820D01*
X013197Y004820D01*
X013197Y005200D01*
X013184Y005246D01*
X013161Y005287D01*
X013127Y005320D01*
X013086Y005344D01*
X013040Y005356D01*
X012661Y005356D01*
X012661Y004820D01*
X012545Y004820D01*
X012010Y004820D01*
X012010Y005200D01*
X012022Y005246D01*
X012046Y005287D01*
X012079Y005320D01*
X012120Y005344D01*
X012166Y005356D01*
X012545Y005356D01*
X012545Y004820D01*
X012545Y004935D02*
X012661Y004935D01*
X012661Y004777D02*
X014199Y004777D01*
X014199Y004820D02*
X013663Y004820D01*
X013663Y005200D01*
X013676Y005246D01*
X013699Y005287D01*
X013733Y005320D01*
X013774Y005344D01*
X013820Y005356D01*
X014199Y005356D01*
X014199Y004820D01*
X014199Y004935D02*
X014315Y004935D01*
X014315Y004777D02*
X015267Y004777D01*
X015267Y004935D02*
X014850Y004935D01*
X014850Y005094D02*
X015267Y005094D01*
X015267Y005252D02*
X014834Y005252D01*
X014315Y005252D02*
X014199Y005252D01*
X014199Y005094D02*
X014315Y005094D01*
X014315Y004618D02*
X014199Y004618D01*
X014199Y004460D02*
X014315Y004460D01*
X014315Y004301D02*
X014199Y004301D01*
X013670Y004301D02*
X013190Y004301D01*
X013184Y004280D02*
X013197Y004326D01*
X013197Y004705D01*
X012661Y004705D01*
X012661Y004169D01*
X013040Y004169D01*
X013086Y004182D01*
X013127Y004205D01*
X013161Y004239D01*
X013184Y004280D01*
X013197Y004460D02*
X013663Y004460D01*
X013663Y004618D02*
X013197Y004618D01*
X013197Y004935D02*
X013663Y004935D01*
X013663Y005094D02*
X013197Y005094D01*
X013181Y005252D02*
X013679Y005252D01*
X012661Y005252D02*
X012545Y005252D01*
X012545Y005094D02*
X012661Y005094D01*
X012010Y005094D02*
X011543Y005094D01*
X011527Y005252D02*
X012026Y005252D01*
X012010Y004935D02*
X011543Y004935D01*
X011543Y004618D02*
X012010Y004618D01*
X012010Y004460D02*
X011543Y004460D01*
X011536Y004301D02*
X012016Y004301D01*
X012545Y004301D02*
X012661Y004301D01*
X012661Y004460D02*
X012545Y004460D01*
X012545Y004618D02*
X012661Y004618D01*
X011007Y004618D02*
X010892Y004618D01*
X010892Y004460D02*
X011007Y004460D01*
X011007Y004301D02*
X010892Y004301D01*
X010892Y004935D02*
X011007Y004935D01*
X011007Y005094D02*
X010892Y005094D01*
X010892Y005252D02*
X011007Y005252D01*
X010372Y005252D02*
X009940Y005252D01*
X009940Y005094D02*
X010356Y005094D01*
X008653Y005094D02*
X008286Y005094D01*
X008286Y005252D02*
X008653Y005252D01*
X008110Y005411D02*
X018787Y005411D01*
X018787Y005406D02*
X018709Y005406D01*
X018574Y005271D01*
X018574Y004254D01*
X018709Y004119D01*
X019726Y004119D01*
X019861Y004254D01*
X019861Y005271D01*
X019726Y005406D01*
X019647Y005406D01*
X019647Y008131D01*
X020451Y008750D01*
X022113Y008750D01*
X022158Y008705D01*
X022219Y008680D01*
X022158Y008655D01*
X022000Y008497D01*
X021915Y008291D01*
X021915Y008069D01*
X022000Y007863D01*
X022158Y007705D01*
X022364Y007620D01*
X023246Y007620D01*
X023452Y007705D01*
X023610Y007863D01*
X023695Y008069D01*
X023695Y008291D01*
X023610Y008497D01*
X023452Y008655D01*
X023391Y008680D01*
X023452Y008705D01*
X023610Y008863D01*
X023695Y009069D01*
X023695Y009291D01*
X023610Y009497D01*
X023452Y009655D01*
X023328Y009706D01*
X023331Y009707D01*
X023402Y009744D01*
X023467Y009791D01*
X023524Y009848D01*
X023571Y009913D01*
X023608Y009984D01*
X023632Y010061D01*
X023645Y010140D01*
X023645Y010150D01*
X022835Y010150D01*
X022835Y010210D01*
X022775Y010210D01*
X022775Y010690D01*
X022435Y010690D01*
X022356Y010677D01*
X022279Y010653D01*
X022208Y010616D01*
X022143Y010569D01*
X022086Y010512D01*
X022039Y010447D01*
X022002Y010376D01*
X021978Y010299D01*
X021965Y010220D01*
X021965Y010210D01*
X022775Y010210D01*
X022775Y010150D01*
X021965Y010150D01*
X021965Y010140D01*
X021978Y010061D01*
X022002Y009984D01*
X022039Y009913D01*
X022086Y009848D01*
X022143Y009791D01*
X022208Y009744D01*
X022279Y009707D01*
X022282Y009706D01*
X022158Y009655D01*
X022113Y009610D01*
X020333Y009610D01*
X020276Y009617D01*
X020248Y009610D01*
X020219Y009610D01*
X020166Y009588D01*
X020110Y009573D01*
X020088Y009555D01*
X020061Y009545D01*
X020021Y009504D01*
X019000Y008718D01*
X018974Y008707D01*
X018933Y008666D01*
X018887Y008631D01*
X018873Y008606D01*
X018853Y008586D01*
X018831Y008533D01*
X018802Y008483D01*
X018798Y008454D01*
X018787Y008428D01*
X018787Y008370D01*
X018780Y008313D01*
X018787Y008285D01*
X018787Y005406D01*
X018787Y005569D02*
X015615Y005569D01*
X015749Y005728D02*
X018787Y005728D01*
X018787Y005886D02*
X015797Y005886D01*
X015797Y006045D02*
X018787Y006045D01*
X018787Y006203D02*
X015797Y006203D01*
X015797Y006362D02*
X018787Y006362D01*
X018787Y006520D02*
X015797Y006520D01*
X015797Y006679D02*
X018787Y006679D01*
X018787Y006837D02*
X015797Y006837D01*
X015797Y006996D02*
X018787Y006996D01*
X018787Y007154D02*
X015797Y007154D01*
X015797Y007313D02*
X018787Y007313D01*
X018787Y007471D02*
X015797Y007471D01*
X015797Y007630D02*
X018787Y007630D01*
X018787Y007788D02*
X015797Y007788D01*
X015797Y007947D02*
X018787Y007947D01*
X018787Y008105D02*
X015797Y008105D01*
X015797Y008264D02*
X018787Y008264D01*
X018787Y008422D02*
X015797Y008422D01*
X015797Y008581D02*
X018851Y008581D01*
X019028Y008739D02*
X015797Y008739D01*
X015797Y008898D02*
X019233Y008898D01*
X019439Y009056D02*
X015797Y009056D01*
X015797Y009215D02*
X019645Y009215D01*
X019851Y009373D02*
X015797Y009373D01*
X015797Y009532D02*
X020048Y009532D01*
X020437Y008739D02*
X022124Y008739D01*
X022084Y008581D02*
X020231Y008581D01*
X020026Y008422D02*
X021969Y008422D01*
X021915Y008264D02*
X019820Y008264D01*
X019647Y008105D02*
X021915Y008105D01*
X021966Y007947D02*
X019647Y007947D01*
X019647Y007788D02*
X022075Y007788D01*
X022341Y007630D02*
X019647Y007630D01*
X019647Y007471D02*
X025250Y007471D01*
X025250Y007630D02*
X023269Y007630D01*
X023535Y007788D02*
X025250Y007788D01*
X025250Y007947D02*
X023644Y007947D01*
X023695Y008105D02*
X025250Y008105D01*
X025250Y008264D02*
X023695Y008264D01*
X023641Y008422D02*
X025250Y008422D01*
X025250Y008581D02*
X023526Y008581D01*
X023486Y008739D02*
X025250Y008739D01*
X025250Y008898D02*
X023624Y008898D01*
X023690Y009056D02*
X025250Y009056D01*
X025250Y009215D02*
X023695Y009215D01*
X023661Y009373D02*
X025250Y009373D01*
X025250Y009532D02*
X023575Y009532D01*
X023367Y009690D02*
X025250Y009690D01*
X025250Y009849D02*
X023525Y009849D01*
X023615Y010007D02*
X025250Y010007D01*
X025250Y010166D02*
X022835Y010166D01*
X022835Y010210D02*
X023645Y010210D01*
X023645Y010220D01*
X023632Y010299D01*
X023608Y010376D01*
X023571Y010447D01*
X023524Y010512D01*
X023467Y010569D01*
X023402Y010616D01*
X023331Y010653D01*
X023254Y010677D01*
X023175Y010690D01*
X022835Y010690D01*
X022835Y010210D01*
X022775Y010166D02*
X015797Y010166D01*
X015797Y010324D02*
X021986Y010324D01*
X022064Y010483D02*
X015797Y010483D01*
X015797Y010641D02*
X022256Y010641D01*
X022775Y010641D02*
X022835Y010641D01*
X022835Y010483D02*
X022775Y010483D01*
X022775Y010324D02*
X022835Y010324D01*
X023354Y010641D02*
X025250Y010641D01*
X025250Y010483D02*
X023546Y010483D01*
X023624Y010324D02*
X025250Y010324D01*
X026110Y010324D02*
X026555Y010324D01*
X026555Y010166D02*
X026110Y010166D01*
X026110Y010007D02*
X026555Y010007D01*
X026555Y009849D02*
X026110Y009849D01*
X026110Y009690D02*
X026555Y009690D01*
X026555Y009532D02*
X026110Y009532D01*
X026110Y009373D02*
X026555Y009373D01*
X026555Y009215D02*
X026110Y009215D01*
X026110Y009056D02*
X026555Y009056D01*
X026555Y008898D02*
X026110Y008898D01*
X026110Y008739D02*
X026555Y008739D01*
X026555Y008581D02*
X026110Y008581D01*
X026110Y008422D02*
X026555Y008422D01*
X026555Y008264D02*
X026110Y008264D01*
X026110Y008105D02*
X026555Y008105D01*
X026555Y007947D02*
X026110Y007947D01*
X026110Y007788D02*
X026555Y007788D01*
X026555Y007630D02*
X026110Y007630D01*
X026110Y007471D02*
X026555Y007471D01*
X026930Y007471D02*
X030442Y007471D01*
X030442Y007630D02*
X026930Y007630D01*
X026930Y007788D02*
X030442Y007788D01*
X030442Y007947D02*
X026930Y007947D01*
X026930Y008105D02*
X028351Y008105D01*
X028269Y008127D02*
X028011Y008276D01*
X027801Y008486D01*
X027652Y008744D01*
X027575Y009031D01*
X027575Y009329D01*
X027652Y009616D01*
X027801Y009874D01*
X028011Y010084D01*
X028269Y010233D01*
X028556Y010310D01*
X028854Y010310D01*
X029141Y010233D01*
X029399Y010084D01*
X029609Y009874D01*
X029758Y009616D01*
X029835Y009329D01*
X029835Y009031D01*
X029758Y008744D01*
X029609Y008486D01*
X029399Y008276D01*
X029141Y008127D01*
X028854Y008050D01*
X028556Y008050D01*
X028269Y008127D01*
X028032Y008264D02*
X026930Y008264D01*
X026930Y008422D02*
X027865Y008422D01*
X027746Y008581D02*
X026930Y008581D01*
X026930Y008739D02*
X027655Y008739D01*
X027611Y008898D02*
X026930Y008898D01*
X026930Y009056D02*
X027575Y009056D01*
X027575Y009215D02*
X026930Y009215D01*
X026930Y009373D02*
X027587Y009373D01*
X027629Y009532D02*
X026930Y009532D01*
X026930Y009690D02*
X027695Y009690D01*
X027786Y009849D02*
X026930Y009849D01*
X026930Y010007D02*
X027934Y010007D01*
X028152Y010166D02*
X026930Y010166D01*
X026930Y010324D02*
X030442Y010324D01*
X030442Y010166D02*
X029258Y010166D01*
X029476Y010007D02*
X030442Y010007D01*
X030442Y009849D02*
X029624Y009849D01*
X029715Y009690D02*
X030442Y009690D01*
X030442Y009532D02*
X029781Y009532D01*
X029823Y009373D02*
X030442Y009373D01*
X030442Y009215D02*
X029835Y009215D01*
X029835Y009056D02*
X030442Y009056D01*
X030442Y008898D02*
X029799Y008898D01*
X029755Y008739D02*
X030442Y008739D01*
X030442Y008581D02*
X029664Y008581D01*
X029545Y008422D02*
X030442Y008422D01*
X030442Y008264D02*
X029378Y008264D01*
X029059Y008105D02*
X030442Y008105D01*
X030442Y007313D02*
X026930Y007313D01*
X026555Y007313D02*
X026110Y007313D01*
X026110Y007154D02*
X026555Y007154D01*
X026555Y006996D02*
X026110Y006996D01*
X026110Y006837D02*
X026555Y006837D01*
X026555Y006679D02*
X026110Y006679D01*
X026110Y006520D02*
X026555Y006520D01*
X026555Y006362D02*
X026110Y006362D01*
X026110Y006203D02*
X026555Y006203D01*
X026555Y006045D02*
X026110Y006045D01*
X026110Y005886D02*
X026555Y005886D01*
X026555Y005728D02*
X026110Y005728D01*
X026110Y005569D02*
X026555Y005569D01*
X026555Y005411D02*
X026110Y005411D01*
X026110Y005252D02*
X026555Y005252D01*
X026555Y005094D02*
X026110Y005094D01*
X026110Y004935D02*
X026555Y004935D01*
X026555Y004777D02*
X026110Y004777D01*
X026110Y004618D02*
X026555Y004618D01*
X026555Y004460D02*
X026110Y004460D01*
X026110Y004301D02*
X026555Y004301D01*
X026555Y004143D02*
X026110Y004143D01*
X026110Y003984D02*
X026555Y003984D01*
X026555Y003826D02*
X026110Y003826D01*
X026110Y003667D02*
X026555Y003667D01*
X026555Y003509D02*
X026110Y003509D01*
X026110Y003350D02*
X026555Y003350D01*
X026555Y003192D02*
X026110Y003192D01*
X026110Y003033D02*
X026555Y003033D01*
X026555Y002875D02*
X026110Y002875D01*
X026110Y002716D02*
X026555Y002716D01*
X026555Y002558D02*
X026110Y002558D01*
X026110Y002399D02*
X026555Y002399D01*
X026555Y002241D02*
X026110Y002241D01*
X026110Y002082D02*
X026555Y002082D01*
X026555Y001924D02*
X026110Y001924D01*
X026110Y001765D02*
X026555Y001765D01*
X026555Y001607D02*
X026110Y001607D01*
X026110Y001448D02*
X026555Y001448D01*
X026555Y001290D02*
X026087Y001290D01*
X025989Y001131D02*
X026555Y001131D01*
X026930Y001131D02*
X028010Y001131D01*
X027810Y001233D02*
X028223Y001022D01*
X028680Y000950D01*
X029137Y001022D01*
X029137Y001022D01*
X029550Y001233D01*
X029877Y001560D01*
X030088Y001973D01*
X030160Y002430D01*
X030088Y002887D01*
X030088Y002887D01*
X029877Y003300D01*
X029550Y003627D01*
X029137Y003838D01*
X028680Y003910D01*
X028223Y003838D01*
X027810Y003627D01*
X027483Y003300D01*
X027272Y002887D01*
X027200Y002430D01*
X027272Y001973D01*
X027483Y001560D01*
X027810Y001233D01*
X027810Y001233D01*
X027753Y001290D02*
X026930Y001290D01*
X026930Y001448D02*
X027595Y001448D01*
X027483Y001560D02*
X027483Y001560D01*
X027459Y001607D02*
X026930Y001607D01*
X026930Y001765D02*
X027378Y001765D01*
X027297Y001924D02*
X026930Y001924D01*
X026930Y002082D02*
X027255Y002082D01*
X027230Y002241D02*
X026930Y002241D01*
X026930Y002399D02*
X027205Y002399D01*
X027220Y002558D02*
X026930Y002558D01*
X026930Y002716D02*
X027245Y002716D01*
X027270Y002875D02*
X026930Y002875D01*
X026930Y003033D02*
X027347Y003033D01*
X027272Y002887D02*
X027272Y002887D01*
X027427Y003192D02*
X026930Y003192D01*
X026930Y003350D02*
X027533Y003350D01*
X027483Y003300D02*
X027483Y003300D01*
X027691Y003509D02*
X026930Y003509D01*
X026930Y003667D02*
X027888Y003667D01*
X027810Y003627D02*
X027810Y003627D01*
X027810Y003627D01*
X028199Y003826D02*
X026930Y003826D01*
X026930Y003984D02*
X030442Y003984D01*
X030442Y003826D02*
X029161Y003826D01*
X029137Y003838D02*
X029137Y003838D01*
X029472Y003667D02*
X030442Y003667D01*
X030442Y003509D02*
X029669Y003509D01*
X029550Y003627D02*
X029550Y003627D01*
X029827Y003350D02*
X030442Y003350D01*
X030442Y003192D02*
X029933Y003192D01*
X029877Y003300D02*
X029877Y003300D01*
X030013Y003033D02*
X030442Y003033D01*
X030442Y002875D02*
X030090Y002875D01*
X030115Y002716D02*
X030442Y002716D01*
X030442Y002558D02*
X030140Y002558D01*
X030155Y002399D02*
X030442Y002399D01*
X030442Y002241D02*
X030130Y002241D01*
X030105Y002082D02*
X030442Y002082D01*
X030442Y001924D02*
X030063Y001924D01*
X030088Y001973D02*
X030088Y001973D01*
X029982Y001765D02*
X030442Y001765D01*
X030442Y001607D02*
X029901Y001607D01*
X029877Y001560D02*
X029877Y001560D01*
X029765Y001448D02*
X030442Y001448D01*
X030442Y001290D02*
X029607Y001290D01*
X029550Y001233D02*
X029550Y001233D01*
X029350Y001131D02*
X030442Y001131D01*
X030442Y000973D02*
X028822Y000973D01*
X028680Y000950D02*
X028680Y000950D01*
X028538Y000973D02*
X026930Y000973D01*
X026930Y000814D02*
X030442Y000814D01*
X030442Y000660D02*
X026930Y000660D01*
X026930Y014570D01*
X030442Y014570D01*
X030442Y000660D01*
X028223Y001022D02*
X028223Y001022D01*
X025250Y003509D02*
X003628Y003509D01*
X003582Y003667D02*
X003481Y003667D01*
X003446Y003704D02*
X003446Y003704D01*
X003381Y003826D02*
X003236Y003826D01*
X003248Y003984D02*
X002865Y003984D01*
X002552Y004055D02*
X002552Y004055D01*
X004696Y003667D02*
X022164Y003667D01*
X022064Y003725D02*
X021865Y003924D01*
X021724Y004168D01*
X021651Y004441D01*
X021651Y004723D01*
X021724Y004995D01*
X021865Y005239D01*
X022064Y005438D01*
X022308Y005579D01*
X022580Y005652D01*
X022862Y005652D01*
X023135Y005579D01*
X023379Y005438D01*
X023578Y005239D01*
X023719Y004995D01*
X023792Y004723D01*
X023792Y004441D01*
X023719Y004168D01*
X023578Y003924D01*
X023379Y003725D01*
X023135Y003584D01*
X022862Y003511D01*
X022580Y003511D01*
X022308Y003584D01*
X022064Y003725D01*
X021963Y003826D02*
X004897Y003826D01*
X005030Y003984D02*
X021830Y003984D01*
X021739Y004143D02*
X021403Y004143D01*
X021380Y004119D02*
X021514Y004254D01*
X021514Y005271D01*
X021380Y005406D01*
X020362Y005406D01*
X020228Y005271D01*
X020228Y004254D01*
X020362Y004119D01*
X021380Y004119D01*
X021514Y004301D02*
X021688Y004301D01*
X021651Y004460D02*
X021514Y004460D01*
X021514Y004618D02*
X021651Y004618D01*
X021665Y004777D02*
X021514Y004777D01*
X021514Y004935D02*
X021708Y004935D01*
X021781Y005094D02*
X021514Y005094D01*
X021514Y005252D02*
X021878Y005252D01*
X022036Y005411D02*
X019647Y005411D01*
X019647Y005569D02*
X022291Y005569D01*
X023152Y005569D02*
X025250Y005569D01*
X025250Y005411D02*
X023406Y005411D01*
X023565Y005252D02*
X025250Y005252D01*
X025250Y005094D02*
X023662Y005094D01*
X023735Y004935D02*
X025250Y004935D01*
X025250Y004777D02*
X023777Y004777D01*
X023792Y004618D02*
X025250Y004618D01*
X025250Y004460D02*
X023792Y004460D01*
X023754Y004301D02*
X025250Y004301D01*
X025250Y004143D02*
X023704Y004143D01*
X023612Y003984D02*
X025250Y003984D01*
X025250Y003826D02*
X023479Y003826D01*
X023278Y003667D02*
X025250Y003667D01*
X026930Y004143D02*
X030442Y004143D01*
X030442Y004301D02*
X026930Y004301D01*
X026930Y004460D02*
X030442Y004460D01*
X030442Y004618D02*
X026930Y004618D01*
X026930Y004777D02*
X030442Y004777D01*
X030442Y004935D02*
X026930Y004935D01*
X026930Y005094D02*
X030442Y005094D01*
X030442Y005252D02*
X026930Y005252D01*
X026930Y005411D02*
X030442Y005411D01*
X030442Y005569D02*
X026930Y005569D01*
X026930Y005728D02*
X030442Y005728D01*
X030442Y005886D02*
X026930Y005886D01*
X026930Y006045D02*
X030442Y006045D01*
X030442Y006203D02*
X026930Y006203D01*
X026930Y006362D02*
X030442Y006362D01*
X030442Y006520D02*
X026930Y006520D01*
X026930Y006679D02*
X030442Y006679D01*
X030442Y006837D02*
X026930Y006837D01*
X026930Y006996D02*
X030442Y006996D01*
X030442Y007154D02*
X026930Y007154D01*
X025250Y007154D02*
X019647Y007154D01*
X019647Y006996D02*
X025250Y006996D01*
X025250Y006837D02*
X019647Y006837D01*
X019647Y006679D02*
X025250Y006679D01*
X025250Y006520D02*
X019647Y006520D01*
X019647Y006362D02*
X025250Y006362D01*
X025250Y006203D02*
X019647Y006203D01*
X019647Y006045D02*
X025250Y006045D01*
X025250Y005886D02*
X019647Y005886D01*
X019647Y005728D02*
X025250Y005728D01*
X025250Y007313D02*
X019647Y007313D01*
X018088Y005320D02*
X018047Y005344D01*
X018001Y005356D01*
X017622Y005356D01*
X017622Y004820D01*
X018157Y004820D01*
X018157Y005200D01*
X018145Y005246D01*
X018121Y005287D01*
X018088Y005320D01*
X018141Y005252D02*
X018574Y005252D01*
X018574Y005094D02*
X018157Y005094D01*
X018157Y004935D02*
X018574Y004935D01*
X018574Y004777D02*
X017622Y004777D01*
X017622Y004820D02*
X017622Y004705D01*
X018157Y004705D01*
X018157Y004326D01*
X018145Y004280D01*
X018121Y004239D01*
X018088Y004205D01*
X018047Y004182D01*
X018001Y004169D01*
X017622Y004169D01*
X017622Y004705D01*
X017506Y004705D01*
X016970Y004705D01*
X016970Y004326D01*
X016983Y004280D01*
X017006Y004239D01*
X017040Y004205D01*
X017081Y004182D01*
X017127Y004169D01*
X017506Y004169D01*
X017506Y004705D01*
X017506Y004820D01*
X016970Y004820D01*
X016970Y005200D01*
X016983Y005246D01*
X017006Y005287D01*
X017040Y005320D01*
X017081Y005344D01*
X017127Y005356D01*
X017506Y005356D01*
X017506Y004820D01*
X017622Y004820D01*
X017622Y004935D02*
X017506Y004935D01*
X017506Y004777D02*
X016554Y004777D01*
X016554Y004935D02*
X016970Y004935D01*
X016970Y005094D02*
X016554Y005094D01*
X016554Y005252D02*
X016986Y005252D01*
X017506Y005252D02*
X017622Y005252D01*
X017622Y005094D02*
X017506Y005094D01*
X017506Y004618D02*
X017622Y004618D01*
X017622Y004460D02*
X017506Y004460D01*
X017506Y004301D02*
X017622Y004301D01*
X018151Y004301D02*
X018574Y004301D01*
X018574Y004460D02*
X018157Y004460D01*
X018157Y004618D02*
X018574Y004618D01*
X018686Y004143D02*
X016442Y004143D01*
X016554Y004301D02*
X016977Y004301D01*
X016970Y004460D02*
X016554Y004460D01*
X016554Y004618D02*
X016970Y004618D01*
X015267Y004618D02*
X014850Y004618D01*
X014850Y004460D02*
X015267Y004460D01*
X019749Y004143D02*
X020339Y004143D01*
X020228Y004301D02*
X019861Y004301D01*
X019861Y004460D02*
X020228Y004460D01*
X020228Y004618D02*
X019861Y004618D01*
X019861Y004777D02*
X020228Y004777D01*
X020228Y004935D02*
X019861Y004935D01*
X019861Y005094D02*
X020228Y005094D01*
X020228Y005252D02*
X019861Y005252D01*
X019775Y003192D02*
X020313Y003192D01*
X020228Y003033D02*
X019861Y003033D01*
X019861Y002875D02*
X020228Y002875D01*
X020228Y002716D02*
X019861Y002716D01*
X019861Y002558D02*
X020228Y002558D01*
X020228Y002399D02*
X019861Y002399D01*
X019861Y002241D02*
X020228Y002241D01*
X020234Y002082D02*
X019854Y002082D01*
X028223Y003838D02*
X028223Y003838D01*
X028680Y003910D02*
X028680Y003910D01*
X022243Y009690D02*
X015797Y009690D01*
X015797Y009849D02*
X022085Y009849D01*
X021995Y010007D02*
X015797Y010007D01*
X015797Y010800D02*
X025250Y010800D01*
X025250Y010958D02*
X015797Y010958D01*
X015797Y011117D02*
X017885Y011117D01*
X017727Y011275D02*
X015797Y011275D01*
X015797Y011434D02*
X017568Y011434D01*
X017410Y011592D02*
X015797Y011592D01*
X015797Y011751D02*
X017251Y011751D01*
X017093Y011909D02*
X015797Y011909D01*
X015797Y012068D02*
X016938Y012068D01*
X016694Y012226D02*
X015979Y012226D01*
X016137Y012385D02*
X016535Y012385D01*
X016459Y012543D02*
X016214Y012543D01*
X016279Y012702D02*
X016393Y012702D01*
X016375Y012860D02*
X016297Y012860D01*
X016297Y013019D02*
X016375Y013019D01*
X016401Y013177D02*
X016272Y013177D01*
X016206Y013336D02*
X016466Y013336D01*
X016554Y013494D02*
X016119Y013494D01*
X015960Y013653D02*
X016712Y013653D01*
X017002Y013811D02*
X015671Y013811D01*
X015064Y013811D02*
X013733Y013811D01*
X014023Y013653D02*
X014775Y013653D01*
X014616Y013494D02*
X014181Y013494D01*
X014269Y013336D02*
X014529Y013336D01*
X014463Y013177D02*
X014334Y013177D01*
X014360Y013019D02*
X014438Y013019D01*
X014438Y012860D02*
X014360Y012860D01*
X014342Y012702D02*
X014456Y012702D01*
X014521Y012543D02*
X014276Y012543D01*
X014200Y012385D02*
X014598Y012385D01*
X014756Y012226D02*
X014041Y012226D01*
X013778Y012068D02*
X014938Y012068D01*
X012500Y013019D02*
X012368Y013019D01*
X012337Y013177D02*
X012526Y013177D01*
X012591Y013336D02*
X012275Y013336D01*
X012169Y013494D02*
X012679Y013494D01*
X012837Y013653D02*
X011996Y013653D01*
X011572Y013653D02*
X011413Y013653D01*
X011413Y013494D02*
X011572Y013494D01*
X011572Y013336D02*
X011413Y013336D01*
X011413Y013177D02*
X011572Y013177D01*
X011572Y013019D02*
X011413Y013019D01*
X010643Y012702D02*
X009386Y012702D01*
X009264Y012543D02*
X010700Y012543D01*
X011413Y012543D02*
X011572Y012543D01*
X011572Y012385D02*
X011413Y012385D01*
X011413Y012226D02*
X011572Y012226D01*
X010989Y013653D02*
X003871Y013653D01*
X003795Y013811D02*
X013127Y013811D01*
X008948Y013336D02*
X008912Y013336D01*
X008912Y013177D02*
X008948Y013177D01*
X008948Y013019D02*
X008912Y013019D01*
X008912Y012860D02*
X008948Y012860D01*
X008948Y012702D02*
X008912Y012702D01*
X008912Y012543D02*
X008948Y012543D01*
X008596Y012543D02*
X008335Y012543D01*
X008441Y012702D02*
X008474Y012702D01*
X008483Y013177D02*
X008434Y013177D01*
X008316Y013336D02*
X008620Y013336D01*
X003664Y013970D02*
X026555Y013970D01*
X026555Y014128D02*
X003517Y014128D01*
X003304Y014287D02*
X026555Y014287D01*
X026555Y014445D02*
X003029Y014445D01*
X008357Y008422D02*
X014938Y008422D01*
X014938Y008264D02*
X008437Y008264D01*
X008440Y008105D02*
X014938Y008105D01*
X014938Y007947D02*
X008366Y007947D01*
X005559Y005569D02*
X004569Y005569D01*
X004824Y005411D02*
X005559Y005411D01*
X005346Y005252D02*
X004982Y005252D01*
X005079Y005094D02*
X005346Y005094D01*
X005346Y004935D02*
X005152Y004935D01*
X005195Y004777D02*
X005346Y004777D01*
X005346Y004618D02*
X005209Y004618D01*
X005209Y004460D02*
X005346Y004460D01*
X005346Y004301D02*
X005172Y004301D01*
X005121Y004143D02*
X005457Y004143D01*
X006521Y004143D02*
X007111Y004143D01*
X006999Y004301D02*
X006632Y004301D01*
X006632Y004460D02*
X006999Y004460D01*
X006999Y004618D02*
X006632Y004618D01*
X006632Y004777D02*
X006999Y004777D01*
X006999Y004935D02*
X006632Y004935D01*
X006632Y005094D02*
X006999Y005094D01*
X006999Y005252D02*
X006632Y005252D01*
X006419Y005411D02*
X007250Y005411D01*
X008286Y004935D02*
X008653Y004935D01*
X008653Y004777D02*
X008286Y004777D01*
X008286Y004618D02*
X008653Y004618D01*
X008653Y004460D02*
X008286Y004460D01*
X008286Y004301D02*
X008653Y004301D01*
X008764Y004143D02*
X008174Y004143D01*
X018309Y011909D02*
X026555Y011909D01*
X026555Y011751D02*
X025968Y011751D01*
X026078Y011592D02*
X026555Y011592D01*
X026555Y011434D02*
X026110Y011434D01*
X026110Y011275D02*
X026555Y011275D01*
X026930Y011275D02*
X030442Y011275D01*
X030442Y011434D02*
X026930Y011434D01*
X026930Y011592D02*
X028086Y011592D01*
X028223Y011522D02*
X027810Y011733D01*
X027810Y011733D01*
X027483Y012060D01*
X027483Y012060D01*
X027272Y012473D01*
X027272Y012473D01*
X027200Y012930D01*
X027200Y012930D01*
X027272Y013387D01*
X027272Y013387D01*
X027483Y013800D01*
X027483Y013800D01*
X027810Y014127D01*
X027810Y014127D01*
X028223Y014338D01*
X028223Y014338D01*
X028680Y014410D01*
X028680Y014410D01*
X029137Y014338D01*
X029137Y014338D01*
X029550Y014127D01*
X029550Y014127D01*
X029877Y013800D01*
X029877Y013800D01*
X030088Y013387D01*
X030160Y012930D01*
X030088Y012473D01*
X030088Y012473D01*
X029877Y012060D01*
X029550Y011733D01*
X029550Y011733D01*
X029137Y011522D01*
X028680Y011450D01*
X028680Y011450D01*
X028223Y011522D01*
X028223Y011522D01*
X027792Y011751D02*
X026930Y011751D01*
X026930Y011909D02*
X027634Y011909D01*
X027479Y012068D02*
X026930Y012068D01*
X026930Y012226D02*
X027398Y012226D01*
X027317Y012385D02*
X026930Y012385D01*
X026930Y012543D02*
X027261Y012543D01*
X027236Y012702D02*
X026930Y012702D01*
X026930Y012860D02*
X027211Y012860D01*
X027214Y013019D02*
X026930Y013019D01*
X026930Y013177D02*
X027239Y013177D01*
X027264Y013336D02*
X026930Y013336D01*
X026930Y013494D02*
X027327Y013494D01*
X027408Y013653D02*
X026930Y013653D01*
X026930Y013811D02*
X027494Y013811D01*
X027652Y013970D02*
X026930Y013970D01*
X026930Y014128D02*
X027811Y014128D01*
X028122Y014287D02*
X026930Y014287D01*
X026930Y014445D02*
X030442Y014445D01*
X030442Y014287D02*
X029238Y014287D01*
X029549Y014128D02*
X030442Y014128D01*
X030442Y013970D02*
X029708Y013970D01*
X029866Y013811D02*
X030442Y013811D01*
X030442Y013653D02*
X029952Y013653D01*
X030033Y013494D02*
X030442Y013494D01*
X030442Y013336D02*
X030096Y013336D01*
X030088Y013387D02*
X030088Y013387D01*
X030121Y013177D02*
X030442Y013177D01*
X030442Y013019D02*
X030146Y013019D01*
X030149Y012860D02*
X030442Y012860D01*
X030442Y012702D02*
X030124Y012702D01*
X030099Y012543D02*
X030442Y012543D01*
X030442Y012385D02*
X030043Y012385D01*
X029962Y012226D02*
X030442Y012226D01*
X030442Y012068D02*
X029881Y012068D01*
X029726Y011909D02*
X030442Y011909D01*
X030442Y011751D02*
X029568Y011751D01*
X029274Y011592D02*
X030442Y011592D01*
X030442Y011117D02*
X026930Y011117D01*
X026930Y010958D02*
X030442Y010958D01*
X030442Y010800D02*
X026930Y010800D01*
X026930Y010641D02*
X030442Y010641D01*
X030442Y010483D02*
X026930Y010483D01*
X026555Y010483D02*
X026110Y010483D01*
X026110Y010641D02*
X026555Y010641D01*
X026555Y010800D02*
X026110Y010800D01*
X026110Y010958D02*
X026555Y010958D01*
X026555Y011117D02*
X026110Y011117D01*
X026555Y012068D02*
X021528Y012068D01*
X021365Y012000D02*
X021707Y012142D01*
X021968Y012403D01*
X022110Y012745D01*
X022110Y013115D01*
X021968Y013457D01*
X021707Y013718D01*
X021365Y013860D01*
X020995Y013860D01*
X020653Y013718D01*
X020392Y013457D01*
X020250Y013115D01*
X020250Y012745D01*
X020392Y012403D01*
X020653Y012142D01*
X020995Y012000D01*
X021365Y012000D01*
X021791Y012226D02*
X026555Y012226D01*
X026555Y012385D02*
X021950Y012385D01*
X022026Y012543D02*
X026555Y012543D01*
X026555Y012702D02*
X022092Y012702D01*
X022110Y012860D02*
X026555Y012860D01*
X026555Y013019D02*
X022110Y013019D01*
X022084Y013177D02*
X026555Y013177D01*
X026555Y013336D02*
X022019Y013336D01*
X021931Y013494D02*
X026555Y013494D01*
X026555Y013653D02*
X021773Y013653D01*
X021483Y013811D02*
X026555Y013811D01*
X020877Y013811D02*
X019546Y013811D01*
X019427Y013860D02*
X019058Y013860D01*
X018716Y013718D01*
X018454Y013457D01*
X018313Y013115D01*
X018313Y012745D01*
X018454Y012403D01*
X018716Y012142D01*
X019058Y012000D01*
X019427Y012000D01*
X019769Y012142D01*
X020031Y012403D01*
X020172Y012745D01*
X020172Y013115D01*
X020031Y013457D01*
X019769Y013718D01*
X019427Y013860D01*
X019835Y013653D02*
X020587Y013653D01*
X020429Y013494D02*
X019994Y013494D01*
X020081Y013336D02*
X020341Y013336D01*
X020276Y013177D02*
X020147Y013177D01*
X020172Y013019D02*
X020250Y013019D01*
X020250Y012860D02*
X020172Y012860D01*
X020154Y012702D02*
X020268Y012702D01*
X020334Y012543D02*
X020089Y012543D01*
X020012Y012385D02*
X020410Y012385D01*
X020569Y012226D02*
X019854Y012226D01*
X019590Y012068D02*
X020832Y012068D01*
X018895Y012068D02*
X018151Y012068D01*
X017992Y012226D02*
X018631Y012226D01*
X018473Y012385D02*
X018075Y012385D01*
X018151Y012543D02*
X018396Y012543D01*
X018331Y012702D02*
X018217Y012702D01*
X018235Y012860D02*
X018313Y012860D01*
X018313Y013019D02*
X018235Y013019D01*
X018209Y013177D02*
X018338Y013177D01*
X018404Y013336D02*
X018144Y013336D01*
X018056Y013494D02*
X018491Y013494D01*
X018650Y013653D02*
X017898Y013653D01*
X017608Y013811D02*
X018939Y013811D01*
D15*
X010805Y011055D03*
X008055Y008180D03*
X010055Y007680D03*
D16*
X007680Y005930D02*
X007680Y004763D01*
X007643Y004763D01*
X005989Y004763D02*
X005989Y005930D01*
X007680Y005930D01*
X015368Y005930D01*
X015368Y011055D01*
X015368Y012930D01*
X017305Y012930D02*
X017305Y012305D01*
X018180Y011430D01*
X025680Y011430D01*
X025680Y001430D01*
X005989Y001430D01*
X005989Y002597D01*
X019217Y004763D02*
X019217Y008342D01*
X020305Y009180D01*
X022805Y009180D01*
D17*
X015368Y011055D02*
X010805Y011055D01*
X005430Y012930D02*
X005430Y008305D01*
X005555Y008180D01*
X008055Y008180D01*
D18*
X028704Y009183D03*
M02*
